<svg width="18" height="19" viewBox="0 0 18 19" fill="none" xmlns="http://www.w3.org/2000/svg">
<path d="M8.0483 15.7483C7.82327 15.9732 7.5181 16.0996 7.1999 16.0996C6.88171 16.0996 6.57654 15.9732 6.3515 15.7483L0.951505 10.3483C0.726539 10.1232 0.60016 9.81806 0.60016 9.49987C0.60016 9.18167 0.726539 8.8765 0.951505 8.65147L6.3515 3.25146C6.57783 3.03288 6.88095 2.91192 7.19558 2.91466C7.51022 2.91739 7.8112 3.04359 8.03368 3.26608C8.25617 3.48857 8.38238 3.78955 8.38511 4.10418C8.38784 4.41882 8.26689 4.72194 8.0483 4.94826L4.7999 8.29987L16.1999 8.29986C16.5182 8.29986 16.8234 8.42629 17.0484 8.65134C17.2735 8.87638 17.3999 9.1816 17.3999 9.49986C17.3999 9.81812 17.2735 10.1233 17.0484 10.3484C16.8234 10.5734 16.5182 10.6999 16.1999 10.6999L4.7999 10.6999L8.0483 14.0515C8.27327 14.2765 8.39965 14.5817 8.39965 14.8999C8.39965 15.2181 8.27327 15.5232 8.0483 15.7483Z" fill="white"/>
</svg>
