<svg width="40" height="40" viewBox="0 0 40 40" fill="none" xmlns="http://www.w3.org/2000/svg">
<path d="M20.2402 17.8232V22.4704H26.6984C26.4148 23.965 25.5638 25.2305 24.2875 26.0814L28.182 29.1032C30.4511 27.0087 31.7602 23.9323 31.7602 20.2778C31.7602 19.4269 31.6838 18.6087 31.542 17.8233L20.2402 17.8232Z" fill="#4285F4"/>
<path d="M13.5148 22.289L12.6365 22.9613L9.52734 25.3831C11.5019 29.2995 15.5489 32.005 20.2397 32.005C23.4796 32.005 26.196 30.9359 28.1815 29.1032L24.287 26.0813C23.2179 26.8013 21.8542 27.2377 20.2397 27.2377C17.1197 27.2377 14.4689 25.1323 13.5198 22.2959L13.5148 22.289Z" fill="#34A853"/>
<path d="M9.52741 14.6264C8.70928 16.2409 8.24023 18.0627 8.24023 20.0045C8.24023 21.9463 8.70928 23.7681 9.52741 25.3826C9.52741 25.3934 13.5202 22.2844 13.5202 22.2844C13.2802 21.5644 13.1384 20.8008 13.1384 20.0044C13.1384 19.2079 13.2802 18.4443 13.5202 17.7243L9.52741 14.6264Z" fill="#FBBC05"/>
<path d="M20.24 12.783C22.0073 12.783 23.5782 13.3939 24.8327 14.5721L28.269 11.1357C26.1854 9.19396 23.48 8.00479 20.24 8.00479C15.5491 8.00479 11.5019 10.6993 9.52734 14.6266L13.52 17.7248C14.4691 14.8884 17.12 12.783 20.24 12.783Z" fill="#EA4335"/>
</svg>
