<svg width="40" height="40" viewBox="0 0 40 40" fill="none" xmlns="http://www.w3.org/2000/svg">
<rect width="40" height="40" rx="20" fill="white"/>
<g clip-path="url(#clip0_1088_3261)">
<g clip-path="url(#clip1_1088_3261)">
<path d="M20.0013 11.666C22.2655 11.666 22.548 11.6744 23.4363 11.716C24.3238 11.7577 24.928 11.8969 25.4597 12.1035C26.0097 12.3152 26.473 12.6019 26.9363 13.0644C27.3601 13.4809 27.688 13.9848 27.8972 14.541C28.103 15.0719 28.243 15.6769 28.2847 16.5644C28.3238 17.4527 28.3347 17.7352 28.3347 19.9993C28.3347 22.2635 28.3263 22.546 28.2847 23.4343C28.243 24.3218 28.103 24.926 27.8972 25.4577C27.6886 26.0141 27.3606 26.5182 26.9363 26.9343C26.5196 27.3579 26.0158 27.6858 25.4597 27.8952C24.9288 28.101 24.3238 28.241 23.4363 28.2827C22.548 28.3218 22.2655 28.3327 20.0013 28.3327C17.7371 28.3327 17.4546 28.3243 16.5663 28.2827C15.6788 28.241 15.0746 28.101 14.543 27.8952C13.9866 27.6864 13.4826 27.3584 13.0663 26.9343C12.6425 26.5178 12.3146 26.0139 12.1055 25.4577C11.8988 24.9268 11.7596 24.3218 11.718 23.4343C11.6788 22.546 11.668 22.2635 11.668 19.9993C11.668 17.7352 11.6763 17.4527 11.718 16.5644C11.7596 15.676 11.8988 15.0727 12.1055 14.541C12.314 13.9845 12.642 13.4805 13.0663 13.0644C13.4827 12.6404 13.9867 12.3125 14.543 12.1035C15.0746 11.8969 15.678 11.7577 16.5663 11.716C17.4546 11.6769 17.7371 11.666 20.0013 11.666ZM20.0013 15.8327C18.8962 15.8327 17.8364 16.2717 17.055 17.0531C16.2736 17.8345 15.8346 18.8943 15.8346 19.9993C15.8346 21.1044 16.2736 22.1642 17.055 22.9456C17.8364 23.727 18.8962 24.166 20.0013 24.166C21.1064 24.166 22.1662 23.727 22.9476 22.9456C23.729 22.1642 24.168 21.1044 24.168 19.9993C24.168 18.8943 23.729 17.8345 22.9476 17.0531C22.1662 16.2717 21.1064 15.8327 20.0013 15.8327ZM25.418 15.6244C25.418 15.3481 25.3082 15.0831 25.1129 14.8878C24.9175 14.6924 24.6526 14.5827 24.3763 14.5827C24.1001 14.5827 23.8351 14.6924 23.6398 14.8878C23.4444 15.0831 23.3347 15.3481 23.3347 15.6244C23.3347 15.9006 23.4444 16.1656 23.6398 16.3609C23.8351 16.5563 24.1001 16.666 24.3763 16.666C24.6526 16.666 24.9175 16.5563 25.1129 16.3609C25.3082 16.1656 25.418 15.9006 25.418 15.6244ZM20.0013 17.4994C20.6644 17.4994 21.3003 17.7627 21.7691 18.2316C22.2379 18.7004 22.5013 19.3363 22.5013 19.9993C22.5013 20.6624 22.2379 21.2983 21.7691 21.7671C21.3003 22.2359 20.6644 22.4993 20.0013 22.4993C19.3383 22.4993 18.7024 22.2359 18.2335 21.7671C17.7647 21.2983 17.5013 20.6624 17.5013 19.9993C17.5013 19.3363 17.7647 18.7004 18.2335 18.2316C18.7024 17.7627 19.3383 17.4994 20.0013 17.4994Z" fill="#262121"/>
</g>
</g>
<defs>
<clipPath id="clip0_1088_3261">
<rect width="20" height="20" fill="white" transform="translate(10 10)"/>
</clipPath>
<clipPath id="clip1_1088_3261">
<rect width="20" height="20" fill="white" transform="translate(10 10)"/>
</clipPath>
</defs>
</svg>
