<svg width="40" height="40" viewBox="0 0 40 40" fill="none" xmlns="http://www.w3.org/2000/svg">
<rect width="40" height="40" rx="20" fill="white"/>
<g clip-path="url(#clip0_1088_3255)">
<g clip-path="url(#clip1_1088_3255)">
<path d="M15.7825 14.1655C15.7823 14.6076 15.6065 15.0314 15.2938 15.3438C14.9811 15.6562 14.5571 15.8316 14.115 15.8314C13.673 15.8312 13.2492 15.6554 12.9368 15.3426C12.6244 15.0299 12.449 14.6059 12.4492 14.1639C12.4494 13.7219 12.6252 13.298 12.938 12.9856C13.2507 12.6732 13.6747 12.4978 14.1167 12.498C14.5587 12.4983 14.9826 12.6741 15.295 12.9868C15.6074 13.2995 15.7828 13.7235 15.7825 14.1655ZM15.8325 17.0655H12.4992V27.4989H15.8325V17.0655ZM21.0992 17.0655H17.7825V27.4989H21.0659V22.0239C21.0659 18.9739 25.0409 18.6905 25.0409 22.0239V27.4989H28.3325V20.8905C28.3325 15.7489 22.4492 15.9405 21.0659 18.4655L21.0992 17.0655Z" fill="#262121"/>
</g>
</g>
<defs>
<clipPath id="clip0_1088_3255">
<rect width="20" height="20" fill="white" transform="translate(10 10)"/>
</clipPath>
<clipPath id="clip1_1088_3255">
<rect width="20" height="20" fill="white" transform="translate(10 10)"/>
</clipPath>
</defs>
</svg>
