<svg width="25" height="25" viewBox="0 0 25 25" fill="none" xmlns="http://www.w3.org/2000/svg">
<g clip-path="url(#clip0_1013_632)">
<path d="M13.5 7.5H11.5V11.5H7.5V13.5H11.5V17.5H13.5V13.5H17.5V11.5H13.5V7.5ZM12.5 2.5C6.99 2.5 2.5 6.99 2.5 12.5C2.5 18.01 6.99 22.5 12.5 22.5H20.5C21.6 22.5 22.5 21.6 22.5 20.5V12.5C22.5 6.99 18.01 2.5 12.5 2.5ZM12.5 20.5C8.09 20.5 4.5 16.91 4.5 12.5C4.5 8.09 8.09 4.5 12.5 4.5C16.91 4.5 20.5 8.09 20.5 12.5C20.5 16.91 16.91 20.5 12.5 20.5Z" fill="white"/>
</g>
<defs>
<clipPath id="clip0_1013_632">
<rect width="24" height="24" fill="white" transform="translate(0.5 0.5)"/>
</clipPath>
</defs>
</svg>
