<svg width="23" height="29" viewBox="0 0 23 29" fill="none" xmlns="http://www.w3.org/2000/svg">
<path d="M0 24.65V21.75H2.875V11.6C2.875 9.59417 3.47396 7.81792 4.67188 6.27125C5.86979 4.70042 7.42708 3.67333 9.34375 3.19V2.175C9.34375 1.57083 9.5474 1.06333 9.95469 0.652498C10.3859 0.217499 10.901 0 11.5 0C12.099 0 12.6021 0.217499 13.0094 0.652498C13.4406 1.06333 13.6562 1.57083 13.6562 2.175V3.19C15.5729 3.67333 17.1302 4.70042 18.3281 6.27125C19.526 7.81792 20.125 9.59417 20.125 11.6V21.75H23V24.65H0ZM11.5 29C10.7094 29 10.0266 28.7221 9.45156 28.1663C8.90052 27.5863 8.625 26.8975 8.625 26.1H14.375C14.375 26.8975 14.0875 27.5863 13.5125 28.1663C12.9615 28.7221 12.2906 29 11.5 29ZM5.75 21.75H17.25V11.6C17.25 10.005 16.687 8.63958 15.5609 7.50375C14.4349 6.36792 13.0813 5.8 11.5 5.8C9.91875 5.8 8.56511 6.36792 7.43906 7.50375C6.31302 8.63958 5.75 10.005 5.75 11.6V21.75Z" fill="#FEF7FF"/>
</svg>
