<svg width="25" height="25" viewBox="0 0 25 25" fill="none" xmlns="http://www.w3.org/2000/svg">
<g clip-path="url(#clip0_1013_747)">
<path d="M9.5 14.25C7.16 14.25 2.5 15.42 2.5 17.75V19.5H16.5V17.75C16.5 15.42 11.84 14.25 9.5 14.25ZM4.84 17.5C5.68 16.92 7.71 16.25 9.5 16.25C11.29 16.25 13.32 16.92 14.16 17.5H4.84ZM9.5 12.5C11.43 12.5 13 10.93 13 9C13 7.07 11.43 5.5 9.5 5.5C7.57 5.5 6 7.07 6 9C6 10.93 7.57 12.5 9.5 12.5ZM9.5 7.5C10.33 7.5 11 8.17 11 9C11 9.83 10.33 10.5 9.5 10.5C8.67 10.5 8 9.83 8 9C8 8.17 8.67 7.5 9.5 7.5ZM16.54 14.31C17.7 15.15 18.5 16.27 18.5 17.75V19.5H22.5V17.75C22.5 15.73 19 14.58 16.54 14.31ZM15.5 12.5C17.43 12.5 19 10.93 19 9C19 7.07 17.43 5.5 15.5 5.5C14.96 5.5 14.46 5.63 14 5.85C14.63 6.74 15 7.83 15 9C15 10.17 14.63 11.26 14 12.15C14.46 12.37 14.96 12.5 15.5 12.5Z" fill="white"/>
</g>
<defs>
<clipPath id="clip0_1013_747">
<rect width="24" height="24" fill="white" transform="translate(0.5 0.5)"/>
</clipPath>
</defs>
</svg>
