<svg width="41" height="41" viewBox="0 0 41 41" fill="none" xmlns="http://www.w3.org/2000/svg">
<path d="M27.6751 18.4498C29.3734 18.4498 30.7501 17.0731 30.7501 15.3748C30.7501 13.6765 29.3734 12.2998 27.6751 12.2998C25.9768 12.2998 24.6001 13.6765 24.6001 15.3748C24.6001 17.0731 25.9768 18.4498 27.6751 18.4498Z" fill="white"/>
<path d="M13.327 18.4498C15.0252 18.4498 16.402 17.0731 16.402 15.3748C16.402 13.6765 15.0252 12.2998 13.327 12.2998C11.6287 12.2998 10.252 13.6765 10.252 15.3748C10.252 17.0731 11.6287 18.4498 13.327 18.4498Z" fill="white"/>
<path d="M20.5 28.7C17.466 28.7 14.8625 27.0395 13.4275 24.6H10.004C11.644 28.8025 15.7235 31.775 20.5 31.775C25.2765 31.775 29.356 28.8025 30.996 24.6H27.5725C26.158 27.0395 23.534 28.7 20.5 28.7ZM20.4795 0C9.1635 0 0 9.184 0 20.5C0 31.816 9.1635 41 20.4795 41C31.816 41 41 31.816 41 20.5C41 9.184 31.816 0 20.4795 0ZM20.5 36.9C11.439 36.9 4.1 29.561 4.1 20.5C4.1 11.439 11.439 4.1 20.5 4.1C29.561 4.1 36.9 11.439 36.9 20.5C36.9 29.561 29.561 36.9 20.5 36.9Z" fill="white"/>
</svg>
