<svg width="25" height="25" viewBox="0 0 25 25" fill="none" xmlns="http://www.w3.org/2000/svg">
<g clip-path="url(#clip0_1013_2266)">
<path d="M16 11.5C16.8284 11.5 17.5 10.8284 17.5 10C17.5 9.17157 16.8284 8.5 16 8.5C15.1716 8.5 14.5 9.17157 14.5 10C14.5 10.8284 15.1716 11.5 16 11.5Z" fill="white"/>
<path d="M9 11.5C9.82843 11.5 10.5 10.8284 10.5 10C10.5 9.17157 9.82843 8.5 9 8.5C8.17157 8.5 7.5 9.17157 7.5 10C7.5 10.8284 8.17157 11.5 9 11.5Z" fill="white"/>
<path d="M12.5 16.5C11.02 16.5 9.75 15.69 9.05 14.5H7.38C8.18 16.55 10.17 18 12.5 18C14.83 18 16.82 16.55 17.62 14.5H15.95C15.26 15.69 13.98 16.5 12.5 16.5ZM12.49 2.5C6.97 2.5 2.5 6.98 2.5 12.5C2.5 18.02 6.97 22.5 12.49 22.5C18.02 22.5 22.5 18.02 22.5 12.5C22.5 6.98 18.02 2.5 12.49 2.5ZM12.5 20.5C8.08 20.5 4.5 16.92 4.5 12.5C4.5 8.08 8.08 4.5 12.5 4.5C16.92 4.5 20.5 8.08 20.5 12.5C20.5 16.92 16.92 20.5 12.5 20.5Z" fill="white"/>
</g>
<defs>
<clipPath id="clip0_1013_2266">
<rect width="24" height="24" fill="white" transform="translate(0.5 0.5)"/>
</clipPath>
</defs>
</svg>
