<svg width="35" height="35" viewBox="0 0 35 35" fill="none" xmlns="http://www.w3.org/2000/svg">
<path d="M21.207 20.4206L23.5987 16.2864C23.7524 16.0302 23.6841 15.7056 23.462 15.5177L20.9337 13.536C20.9849 13.1602 21.0191 12.7673 21.0191 12.3743C21.0191 11.9814 20.9849 11.5885 20.9337 11.1956L23.462 9.21393C23.6841 9.02602 23.7524 8.70143 23.5987 8.44518L21.207 4.31102C21.0532 4.05477 20.7457 3.95227 20.4724 4.05477L17.4999 5.2506C16.8849 4.77227 16.2187 4.37935 15.4841 4.07185L15.0399 0.911432C14.9887 0.638099 14.7324 0.416016 14.442 0.416016H9.65865C9.36824 0.416016 9.11199 0.638099 9.06074 0.928516L8.61657 4.08893C7.89907 4.39643 7.21574 4.78935 6.60074 5.26768L3.62824 4.07185C3.3549 3.96935 3.0474 4.07185 2.89365 4.3281L0.501987 8.46227C0.348237 8.71852 0.416571 9.0431 0.638654 9.23101L3.16699 11.2127C3.11574 11.5885 3.08157 11.9814 3.08157 12.3743C3.08157 12.7673 3.11574 13.1602 3.16699 13.5531L0.638654 15.5348C0.416571 15.7227 0.348237 16.0473 0.501987 16.3035L2.89365 20.4377C3.0474 20.6939 3.3549 20.7964 3.62824 20.6939L6.60074 19.4981C7.21574 19.9764 7.88199 20.3693 8.61657 20.6768L9.06074 23.8373C9.11199 24.1106 9.36824 24.3327 9.65865 24.3327H14.442C14.7324 24.3327 14.9887 24.1106 15.0399 23.8202L15.4841 20.6598C16.2016 20.3523 16.8849 19.9593 17.4999 19.481L20.4724 20.6768C20.7457 20.7793 21.0532 20.6768 21.207 20.4206ZM12.0503 15.791C10.1712 15.791 8.63365 14.2535 8.63365 12.3743C8.63365 10.4952 10.1712 8.95768 12.0503 8.95768C13.9295 8.95768 15.467 10.4952 15.467 12.3743C15.467 14.2535 13.9295 15.791 12.0503 15.791Z" fill="white"/>
<path d="M34.4466 28.8952L32.8066 27.6311C32.8407 27.3919 32.8749 27.1357 32.8749 26.8794C32.8749 26.6232 32.8578 26.3669 32.8066 26.1277L34.4295 24.8636C34.5662 24.744 34.6174 24.539 34.5149 24.3682L32.9774 21.7202C32.892 21.5494 32.687 21.4982 32.4991 21.5494L30.6028 22.3182C30.2099 22.0107 29.7828 21.7544 29.3045 21.5665L29.0141 19.5507C28.997 19.3457 28.8262 19.209 28.6553 19.209H25.5974C25.4095 19.209 25.2387 19.3457 25.2216 19.5336L24.9312 21.5494C24.4699 21.7544 24.0257 21.9936 23.6328 22.3011L21.7366 21.5323C21.5657 21.464 21.3607 21.5323 21.2582 21.7032L19.7207 24.3511C19.6353 24.5219 19.6524 24.7269 19.8062 24.8465L21.4291 26.1107C21.3949 26.3498 21.3778 26.6061 21.3778 26.8623C21.3778 27.1186 21.3949 27.3748 21.4291 27.614L19.8062 28.8782C19.6695 28.9977 19.6182 29.2027 19.7207 29.3736L21.2582 32.0215C21.3437 32.1923 21.5487 32.2436 21.7366 32.1923L23.6328 31.4236C24.0257 31.7311 24.4528 31.9873 24.9312 32.1752L25.2216 34.1911C25.2557 34.379 25.4095 34.5156 25.5974 34.5156H28.6553C28.8432 34.5156 29.0141 34.379 29.0312 34.1911L29.3216 32.1752C29.7828 31.9702 30.227 31.7311 30.6028 31.4236L32.5162 32.1923C32.687 32.2607 32.892 32.1923 32.9945 32.0215L34.532 29.3736C34.6345 29.2198 34.5832 29.0148 34.4466 28.8952ZM27.1178 29.1686C25.8537 29.1686 24.8116 28.1436 24.8116 26.8623C24.8116 25.5811 25.8366 24.5561 27.1178 24.5561C28.3991 24.5561 29.4241 25.5811 29.4241 26.8623C29.4241 28.1436 28.382 29.1686 27.1178 29.1686Z" fill="white"/>
</svg>
