<svg width="84" height="84" viewBox="0 0 84 84" fill="none" xmlns="http://www.w3.org/2000/svg">
<circle cx="42.0173" cy="41.9139" r="41.4743" fill="#B1C9FF"/>
<mask id="path-2-inside-1_1933_6303" fill="white">
<path d="M22.4243 58.1409V52.5246C24.1532 45.1802 30.6319 48.2043 30.6319 51.2285C30.6319 53.6478 30.0559 57.4208 29.7679 59.0049C29.1919 59.581 28.3854 61.6835 29.7679 65.4853C31.2508 69.5632 29.9198 72.5874 29.7679 74.3155V81.4702C25.9661 80.7789 22.7115 78.59 21.5594 77.582C22.9419 73.4345 22.712 68.6535 22.4243 66.7814C20.3506 61.5971 21.5603 58.8609 22.4243 58.1409Z"/>
</mask>
<path d="M22.4243 52.5246L5.60314 48.5648L5.14335 50.518V52.5246H22.4243ZM22.4243 58.1409L33.4873 71.4165L39.7053 66.2349V58.1409H22.4243ZM22.4243 66.7814L39.5047 64.1561L39.2041 62.2005L38.4693 60.3634L22.4243 66.7814ZM21.5594 77.582L5.16529 72.1172L1.53117 83.0196L10.1799 90.5872L21.5594 77.582ZM29.7679 81.4702L26.6766 98.4724L47.0488 102.176V81.4702H29.7679ZM29.7679 74.3155L12.5533 72.8025L12.4869 73.5575V74.3155H29.7679ZM29.7679 65.4853L46.0084 59.5797V59.5796L29.7679 65.4853ZM29.7679 59.0049L41.9874 71.2244L45.8044 67.4073L46.7701 62.0962L29.7679 59.0049ZM5.14335 52.5246V58.1409H39.7053V52.5246H5.14335ZM11.3613 44.8653C1.95574 52.7033 3.16687 65.1682 6.37934 73.1994L38.4693 60.3634C38.2324 59.7713 38.7161 60.6447 38.5067 62.6142C38.4032 63.5882 38.1219 64.8703 37.4586 66.3074C36.8598 67.6047 35.69 69.5809 33.4873 71.4165L11.3613 44.8653ZM5.34393 69.4066C5.31221 69.2003 5.33118 69.2626 5.34739 69.5739C5.36197 69.8541 5.36804 70.221 5.35158 70.6248C5.33502 71.0311 5.29876 71.3979 5.25098 71.6989C5.2019 72.0081 5.15774 72.1399 5.16529 72.1172L37.9536 83.0467C40.5031 75.3982 40.037 67.6197 39.5047 64.1561L5.34393 69.4066ZM10.1799 90.5872C12.9495 93.0106 18.9668 97.0706 26.6766 98.4724L32.8592 64.468C32.9585 64.486 33.022 64.5027 33.049 64.5103C33.0762 64.5179 33.0774 64.5195 33.0534 64.5106C33.0296 64.5017 32.9901 64.486 32.937 64.4619C32.884 64.4379 32.8256 64.4093 32.7644 64.3769C32.7032 64.3444 32.6469 64.3122 32.5986 64.283C32.55 64.2536 32.518 64.2325 32.5056 64.2241C32.4918 64.2147 32.5127 64.2282 32.5689 64.2711C32.5979 64.2932 32.642 64.3275 32.7001 64.3747C32.7571 64.4211 32.838 64.4883 32.939 64.5767L10.1799 90.5872ZM47.0488 81.4702V74.3155H12.4869V81.4702H47.0488ZM46.9825 75.8285C46.9084 76.6714 46.73 77.4003 46.9582 76.3048C47.0928 75.6588 47.3738 74.3141 47.554 72.7098C47.9432 69.2429 47.8641 64.6827 46.0084 59.5797L13.5274 71.3909C13.369 70.9554 13.255 70.4514 13.2066 69.9265C13.1597 69.4164 13.188 69.0305 13.2079 68.8534C13.2216 68.7308 13.2342 68.721 13.1228 69.2556C13.102 69.3555 13.0587 69.5616 13.0248 69.7267C12.987 69.9102 12.938 70.1527 12.8877 70.4208C12.7957 70.9112 12.6436 71.7749 12.5533 72.8025L46.9825 75.8285ZM46.0084 59.5796C46.0265 59.6293 46.4187 60.7357 46.2386 62.652C46.15 63.5948 45.9149 64.7951 45.3754 66.1439C44.899 67.3349 43.927 69.2848 41.9874 71.2244L17.5484 46.7855C13.4765 50.8574 12.1593 55.8955 11.8283 59.4189C11.4466 63.4809 12.1268 67.5395 13.5274 71.3909L46.0084 59.5796ZM46.7701 62.0962C47.0757 60.4156 47.9129 55.3244 47.9129 51.2285H13.351C13.351 51.2057 13.3496 51.3949 13.3135 51.8394C13.2797 52.2537 13.2275 52.7486 13.1598 53.2918C13.0215 54.4007 12.8551 55.4218 12.7657 55.9136L46.7701 62.0962ZM47.9129 51.2285C47.9129 44.3296 44.3901 39.3041 41.4042 36.5082C38.2663 33.5699 34.0314 31.3948 29.1959 30.8258C24.0228 30.2171 18.2394 31.5057 13.4354 35.4712C8.85114 39.2551 6.61909 44.2491 5.60314 48.5648L39.2455 56.4844C39.094 57.1279 38.3201 59.7457 35.4369 62.1256C32.3338 64.687 28.4944 65.5436 25.157 65.1509C22.1573 64.7979 19.6502 63.4868 17.781 61.7366C16.0639 60.1287 13.351 56.6153 13.351 51.2285H47.9129Z" fill="#8EFFFD" mask="url(#path-2-inside-1_1933_6303)"/>
<mask id="path-4-inside-2_1933_6303" fill="white">
<path d="M60.9489 58.1985V52.5504C59.5114 45.1644 54.1245 48.2057 54.1245 51.247C54.1245 53.68 54.6035 57.4744 54.843 59.0675C54.9773 60.0587 55.9924 61.7612 54.843 65.5845C53.61 69.6855 54.7167 72.7268 54.843 74.4647V81.3575C57.1374 80.7958 61.0256 79.0677 61.8896 78.2037C60.7402 74.0328 60.7097 68.7706 60.9489 66.8879C62.6732 61.6743 61.0256 59.1947 60.9489 58.1985Z"/>
</mask>
<path d="M60.9489 52.5504L77.9116 49.249L78.2299 50.8843V52.5504H60.9489ZM60.9489 58.1985L43.7189 59.5248L43.668 58.8626V58.1985H60.9489ZM60.9489 66.8879L43.8058 64.7094L44.0167 63.05L44.5419 61.4619L60.9489 66.8879ZM61.8896 78.2037L78.5495 73.6123L81.2222 83.3101L74.1091 90.4232L61.8896 78.2037ZM54.843 81.3575L58.9518 98.1429L37.562 103.379V81.3575H54.843ZM54.843 74.4647L72.0785 73.2122L72.1239 73.8376V74.4647H54.843ZM54.843 65.5845L38.2938 60.609L54.843 65.5845ZM54.843 59.0675L71.9319 56.4986L71.9506 56.6227L71.9674 56.7472L54.843 59.0675ZM78.2299 52.5504V58.1985H43.668V52.5504H78.2299ZM78.1789 56.8722C78.0499 55.1961 77.6786 53.9704 77.6703 53.9408C77.6598 53.9036 77.5709 53.6042 77.7547 54.2077C77.9977 55.0052 78.4353 56.5082 78.7202 58.4398C79.3257 62.5442 79.0512 67.188 77.3559 72.314L44.5419 61.4619C44.5827 61.3385 44.5118 61.5144 44.4734 61.9478C44.4335 62.3988 44.4465 62.9286 44.5283 63.4835C44.6073 64.019 44.7264 64.3895 44.6928 64.279C44.6669 64.1939 44.6691 64.2025 44.6107 64.0131C44.5727 63.8899 44.4951 63.6374 44.413 63.3473C44.3318 63.0602 44.2041 62.5896 44.0817 62.0169C43.9619 61.4567 43.8008 60.5883 43.7189 59.5248L78.1789 56.8722ZM78.092 69.0664C78.1425 68.6694 78.1196 68.6579 78.1122 69.1329C78.1061 69.5225 78.1137 70.0602 78.1499 70.6771C78.2297 72.0389 78.4075 73.097 78.5495 73.6123L45.2298 82.7951C43.3963 76.1422 43.3175 68.552 43.8058 64.7094L78.092 69.0664ZM74.1091 90.4232C72.0708 92.4615 69.8243 93.7046 69.1912 94.0592C68.0945 94.6735 66.9644 95.2198 65.9476 95.6738C64.0628 96.5152 61.4774 97.5246 58.9518 98.1429L50.7341 64.5721C50.591 64.6072 50.5421 64.6245 50.5999 64.6064C50.6501 64.5907 50.7483 64.5583 50.8909 64.5065C51.1864 64.3992 51.5325 64.2594 51.8578 64.1142C52.2079 63.9579 52.3553 63.8751 52.3023 63.9048C52.2763 63.9193 52.0667 64.0364 51.7426 64.2559C51.5744 64.3698 51.3156 64.5516 51.0004 64.7999C50.7012 65.0356 50.2227 65.4317 49.6702 65.9842L74.1091 90.4232ZM37.562 81.3575V74.4647H72.1239V81.3575H37.562ZM37.6075 75.7171C37.6531 76.3446 37.7608 76.8679 37.5861 75.8541C37.4754 75.2112 37.2623 73.9731 37.1263 72.5081C36.8372 69.3947 36.8865 65.2896 38.2938 60.609L71.3921 70.56C71.4647 70.3187 71.5153 70.0438 71.5362 69.7692C71.5563 69.5041 71.5418 69.3307 71.5402 69.3134C71.5399 69.3106 71.5435 69.3501 71.559 69.4557C71.5762 69.5721 71.5998 69.7166 71.6465 69.9873C71.6805 70.1849 71.7644 70.6622 71.8329 71.1036C71.9036 71.5596 72.0137 72.3206 72.0785 73.2122L37.6075 75.7171ZM38.2938 60.609C38.2749 60.6717 38.185 60.9949 38.1359 61.5382C38.1117 61.8063 38.0995 62.105 38.1056 62.4287C38.1117 62.7535 38.1356 63.0736 38.1737 63.3822C38.2515 64.0113 38.3748 64.4602 38.3689 64.4378C38.3601 64.4053 38.3554 64.3883 38.3224 64.2678C38.2984 64.18 38.248 63.9957 38.1944 63.7877C38.1399 63.5759 38.0609 63.2589 37.98 62.8811C37.8991 62.5034 37.8004 61.9921 37.7185 61.3878L71.9674 56.7472C71.847 55.8585 71.6774 55.2192 71.6629 55.1629C71.6477 55.1038 71.6395 55.0752 71.6602 55.1509C71.672 55.1938 71.7144 55.3479 71.7537 55.4947C71.9399 56.1899 72.2704 57.4891 72.475 59.1457C72.9116 62.6805 72.6198 66.4766 71.3921 70.56L38.2938 60.609ZM37.754 61.6364C37.5015 59.9564 36.8436 55.0674 36.8436 51.247H71.4055C71.4055 51.5625 71.4516 52.4176 71.5838 53.7001C71.7047 54.8731 71.8501 55.9541 71.9319 56.4986L37.754 61.6364ZM36.8436 51.247C36.8436 45.4837 39.2907 40.7988 42.0347 37.6911C44.7879 34.573 49.0469 31.6649 54.5628 30.8799C60.7288 30.0024 66.9535 32.0489 71.4856 36.5736C75.5151 40.5965 77.1811 45.496 77.9116 49.249L43.9863 55.8519C43.9979 55.9118 44.4515 58.4217 47.0667 61.0326C50.1845 64.1453 54.7929 65.7573 59.4325 65.097C63.422 64.5293 66.2445 62.4902 67.9427 60.5669C69.6317 58.654 71.4055 55.4896 71.4055 51.247H36.8436Z" fill="#8EFFFD" mask="url(#path-4-inside-2_1933_6303)"/>
<mask id="path-6-inside-3_1933_6303" fill="white">
<path d="M34.2412 60.8465C35.5373 53.0917 46.3379 48.3394 49.7941 60.8465H34.2412Z"/>
</mask>
<path d="M34.2412 60.8465L25.7189 59.4222L24.0368 69.487H34.2412V60.8465ZM49.7941 60.8465V69.487H61.1461L58.1224 58.5451L49.7941 60.8465ZM42.7635 62.2709C42.7924 62.0979 42.8945 61.8774 43.0545 61.7056C43.1256 61.6293 43.1659 61.6092 43.1427 61.6226C43.1199 61.6358 42.9901 61.7067 42.741 61.7516C42.4798 61.7987 42.1141 61.8107 41.698 61.7118C41.2709 61.6103 40.9472 61.4287 40.7533 61.2765C40.3887 60.9903 40.9242 61.1885 41.4657 63.148L58.1224 58.5451C56.9358 54.251 54.8252 50.3531 51.4229 47.6827C47.8633 44.8888 43.6213 44.0332 39.6742 44.745C32.3953 46.0576 26.8996 52.358 25.7189 59.4222L42.7635 62.2709ZM49.7941 52.2061H34.2412V69.487H49.7941V52.2061Z" fill="black" mask="url(#path-6-inside-3_1933_6303)"/>
<path d="M22.1445 52.7143C22.2885 51.1302 23.3542 47.962 26.4648 47.962C30.353 47.962 30.785 51.8503 31.217 52.7143" stroke="black" stroke-width="1.7281"/>
<path d="M53.25 52.7143C53.394 51.1302 54.4597 47.962 57.5702 47.962C61.4585 47.962 61.8905 51.8503 62.3225 52.7143" stroke="black" stroke-width="1.7281"/>
</svg>
