<svg width="84" height="84" viewBox="0 0 84 84" fill="none" xmlns="http://www.w3.org/2000/svg">
<circle cx="42.1423" cy="41.9139" r="41.4743" fill="#FF81D8"/>
<mask id="path-2-inside-1_1933_6324" fill="white">
<path d="M22.7065 54.8745L25.7307 47.9622C26.5948 49.4022 28.5821 52.8008 29.619 54.8745C30.6559 56.9483 30.339 58.9068 30.051 59.6268C29.3309 60.7789 27.1995 62.7374 24.4346 61.3549C21.6696 59.9724 22.1305 56.4586 22.7065 54.8745Z"/>
</mask>
<path d="M25.7307 47.9622L40.5488 39.0709L23.3201 10.3578L9.8986 41.0356L25.7307 47.9622ZM22.7065 54.8745L6.87443 47.948L6.65396 48.4519L6.46598 48.9689L22.7065 54.8745ZM24.4346 61.3549L16.7063 76.8114H16.7063L24.4346 61.3549ZM30.051 59.6268L44.705 68.786L45.5229 67.4775L46.096 66.0448L30.051 59.6268ZM9.8986 41.0356L6.87443 47.948L38.5386 61.8011L41.5627 54.8887L9.8986 41.0356ZM6.46598 48.9689C5.48702 51.661 4.58875 55.7486 5.174 60.3642C5.82679 65.5123 8.71456 72.8156 16.7063 76.8114L32.1629 45.8983C34.4261 47.0299 36.3342 48.8057 37.6462 50.9438C38.8727 52.9427 39.3074 54.8021 39.4614 56.0165C39.7298 58.1335 39.3499 59.6721 38.947 60.7802L6.46598 48.9689ZM16.7063 76.8114C23.3357 80.1261 30.1767 79.5477 35.4346 77.0458C39.9347 74.9045 42.9574 71.5821 44.705 68.786L15.397 50.4676C16.4246 48.8236 18.0215 47.0564 20.5846 45.8368C22.0327 45.1478 23.9355 44.5772 26.17 44.5504C28.4597 44.5229 30.5173 45.0756 32.1629 45.8983L16.7063 76.8114ZM46.096 66.0448C47.9821 61.3295 48.588 54.1713 45.0756 47.1463L14.1625 62.6028C13.3737 61.0253 13.0771 59.435 13.0534 58.0549C13.0417 57.3715 13.0947 56.6785 13.2149 55.9724C13.323 55.3374 13.5382 54.3784 14.0061 53.2088L46.096 66.0448ZM45.0756 47.1463C43.7107 44.4167 41.4126 40.5105 40.5488 39.0709L10.9126 56.8534C11.2829 57.4706 11.93 58.5683 12.5958 59.7366C13.2974 60.9678 13.8624 62.0027 14.1625 62.6028L45.0756 47.1463Z" fill="#96FFF6" mask="url(#path-2-inside-1_1933_6324)"/>
<path d="M35.2295 51.8497C37.9656 48.2495 45.3388 43.2092 52.9425 51.8497" stroke="black" stroke-width="1.62644"/>
<circle cx="27.4521" cy="41.9138" r="4.32024" fill="black"/>
<circle cx="59.4228" cy="41.9138" r="4.32024" fill="black"/>
<circle cx="26.3595" cy="44.0234" r="1.29607" fill="white"/>
<circle cx="58.8888" cy="44.0234" r="1.29607" fill="white"/>
</svg>
