<svg width="51" height="52" viewBox="0 0 51 52" fill="none" xmlns="http://www.w3.org/2000/svg">
<circle cx="25.5" cy="26" r="25.5" fill="#F5A180"/>
<mask id="path-2-inside-1_1933_5351" fill="white">
<path d="M20.1875 31.2655C20.9844 26.4975 27.625 23.5757 29.75 31.2655H20.1875Z"/>
</mask>
<path d="M20.1875 31.2655L14.9477 30.3898L13.9134 36.578H20.1875V31.2655ZM29.75 31.2655V36.578H36.7297L34.8706 29.8505L29.75 31.2655ZM25.4273 32.1412C25.4451 32.0349 25.5079 31.8993 25.6062 31.7937C25.65 31.7468 25.6747 31.7344 25.6605 31.7427C25.6465 31.7508 25.5667 31.7944 25.4135 31.822C25.2529 31.851 25.028 31.8583 24.7723 31.7975C24.5096 31.7351 24.3106 31.6234 24.1914 31.5298C23.9672 31.3539 24.2965 31.4757 24.6294 32.6805L34.8706 29.8505C34.141 27.2103 32.8433 24.8137 30.7515 23.1719C28.5629 21.454 25.9547 20.928 23.5279 21.3656C19.0525 22.1727 15.6736 26.0464 14.9477 30.3898L25.4273 32.1412ZM29.75 25.953H20.1875V36.578H29.75V25.953Z" fill="black" mask="url(#path-2-inside-1_1933_5351)"/>
<path d="M12.75 21.75C12.75 22.901 13.8125 25.15 15.9375 24.9375C18.0625 24.725 18.4167 22.724 18.5938 21.75" stroke="black" stroke-width="1.0625"/>
<path d="M31.875 21.75C31.875 22.901 32.9375 25.15 35.0625 24.9375C37.1875 24.725 37.5417 22.724 37.7188 21.75" stroke="black" stroke-width="1.0625"/>
<path d="M30.8513 33.2445L28.9275 35.15L28.0992 34.0818C27.7477 33.6285 27.6425 33.3205 27.6095 33.1583C27.5788 33.0065 27.5926 32.8949 27.6272 32.7878C27.7097 32.5322 27.932 32.2466 28.2396 31.9657C28.3206 31.9301 28.4754 31.8917 28.7307 31.9152C28.882 31.9291 29.0213 31.962 29.1243 31.9968C29.1497 32.0054 29.1697 32.013 29.1842 32.019L30.8513 33.2445ZM32.3601 36.1901L31.1485 33.4629L31.6574 33.837L32.6945 30.8584C32.7522 30.6927 32.7746 30.6827 32.7839 30.6786C32.785 30.6781 32.7859 30.6776 32.7867 30.677C32.8463 30.631 33.1566 30.4235 34.0965 30.2797C34.3011 30.2484 34.4109 30.2775 34.4665 30.2985C34.5304 30.3226 34.6102 30.3706 34.7002 30.4691C34.7939 30.5718 34.8853 30.7161 34.9535 30.8904C35.0226 31.0667 35.05 31.2278 35.053 31.338L35.138 34.4316L34.3313 32.9716L32.4964 36.3977C32.4722 36.3669 32.4493 36.3353 32.4282 36.3038C32.3858 36.2406 32.3643 36.1984 32.3604 36.1907C32.3597 36.1892 32.3596 36.189 32.3601 36.1901ZM36.4015 36.7182L36.3455 36.6168L38.8649 33.1872C38.9417 33.2918 39.0276 33.4327 39.1184 33.6222C39.2614 33.9206 39.3695 34.2533 39.4384 34.5613C39.4723 34.7125 39.4938 34.845 39.506 34.9501C39.5183 35.0562 39.5182 35.1101 39.5182 35.1136C39.5182 35.1138 39.5182 35.1139 39.5182 35.1138L39.5173 35.1464L39.5173 35.1789C39.5173 35.1791 39.5167 35.2042 39.5052 35.2558C39.4931 35.3102 39.4707 35.3854 39.4318 35.4791C39.3526 35.6699 39.2199 35.9017 39.0261 36.1462C38.6298 36.646 38.0791 37.0734 37.4938 37.3007C37.3289 37.3648 37.2343 37.3623 37.186 37.3569C37.1279 37.3504 37.0484 37.3283 36.9433 37.2671C36.8338 37.2033 36.717 37.1083 36.6077 36.9907C36.4963 36.871 36.4273 36.765 36.4015 36.7182ZM28.3313 35.6825C28.3236 35.6857 28.3198 35.6866 28.3197 35.6863C28.3197 35.686 28.3235 35.6844 28.3313 35.6825Z" stroke="#EBEBEB" stroke-width="4.6574"/>
</svg>
