<svg width="84" height="84" viewBox="0 0 84 84" fill="none" xmlns="http://www.w3.org/2000/svg">
<circle cx="42.1696" cy="41.9138" r="41.4743" fill="#F5A180"/>
<mask id="path-2-inside-1_1933_6334" fill="white">
<path d="M33.5293 50.4774C34.8254 42.7226 45.626 37.9703 49.0822 50.4774H33.5293Z"/>
</mask>
<path d="M33.5293 50.4774L25.007 49.0531L23.3249 59.1179H33.5293V50.4774ZM49.0822 50.4774V59.1179H60.4342L57.4105 48.176L49.0822 50.4774ZM42.0516 51.9017C42.0805 51.7288 42.1826 51.5082 42.3426 51.3364C42.4137 51.2601 42.454 51.2401 42.4308 51.2535C42.408 51.2667 42.2782 51.3376 42.0291 51.3825C41.7679 51.4296 41.4022 51.4416 40.9861 51.3427C40.559 51.2412 40.2353 51.0595 40.0414 50.9073C39.6768 50.6211 40.2123 50.8193 40.7538 52.7788L57.4105 48.176C56.2239 43.8819 54.1133 39.984 50.711 37.3136C47.1514 34.5196 42.9094 33.6641 38.9623 34.3758C31.6834 35.6884 26.1877 41.9888 25.007 49.0531L42.0516 51.9017ZM49.0822 41.8369H33.5293V59.1179H49.0822V41.8369Z" fill="black" mask="url(#path-2-inside-1_1933_6334)"/>
<path d="M21.4336 35.0011C21.4336 36.8732 23.1617 40.531 26.6179 40.1854C30.0741 39.8398 30.6501 36.5852 30.9381 35.0011" stroke="black" stroke-width="1.7281"/>
<path d="M52.5381 35.0011C52.5381 36.8732 54.2662 40.531 57.7224 40.1854C61.1786 39.8398 61.7546 36.5852 62.0426 35.0011" stroke="black" stroke-width="1.7281"/>
<path d="M50.8731 53.6961L47.7441 56.7953L46.3968 55.0579C45.8252 54.3207 45.654 53.8197 45.6005 53.5559C45.5504 53.3091 45.5729 53.1275 45.6292 52.9534C45.7635 52.5377 46.1249 52.0731 46.6252 51.6163C46.757 51.5583 47.0088 51.4959 47.424 51.5341C47.6701 51.5567 47.8967 51.6102 48.0642 51.6668C48.1054 51.6808 48.1379 51.6932 48.1617 51.7029L50.8731 53.6961ZM53.327 58.487L51.3564 54.0513L52.184 54.6597L53.871 49.8152C53.9648 49.5458 54.0012 49.5295 54.0163 49.5228C54.0181 49.522 54.0196 49.5213 54.0209 49.5203C54.1178 49.4454 54.6224 49.108 56.1512 48.8741C56.484 48.8232 56.6626 48.8705 56.753 48.9047C56.8569 48.9439 56.9867 49.0219 57.133 49.1821C57.2855 49.3491 57.434 49.5839 57.545 49.8673C57.6574 50.1541 57.702 50.4161 57.7069 50.5953L57.8451 55.6269L56.533 53.2523L53.5488 58.8245C53.5094 58.7745 53.4721 58.7231 53.4378 58.6719C53.3687 58.5691 53.3339 58.5004 53.3275 58.4879C53.3263 58.4855 53.3262 58.4851 53.327 58.487ZM59.9001 59.3459L59.809 59.1811L63.9067 53.603C64.0317 53.7731 64.1714 54.0022 64.319 54.3104C64.5516 54.7958 64.7274 55.3369 64.8395 55.8378C64.8946 56.0837 64.9296 56.2993 64.9494 56.4703C64.9703 56.6505 64.9692 56.7381 64.9692 56.7365L64.9678 56.7895L64.9678 56.8422C64.9677 56.8422 64.967 56.8831 64.9482 56.9674C64.9285 57.0559 64.892 57.1781 64.8287 57.3306C64.6999 57.6409 64.4842 58.0179 64.1689 58.4155C63.5244 59.2285 62.6286 59.9236 61.6768 60.2933C61.4085 60.3975 61.2546 60.3934 61.1761 60.3847C61.0815 60.3742 60.9522 60.3382 60.7813 60.2386C60.6032 60.1349 60.4132 59.9804 60.2354 59.7892C60.0544 59.5944 59.9421 59.4219 59.9001 59.3459ZM46.7744 57.6614C46.7619 57.6666 46.7556 57.6681 46.7556 57.6676C46.7556 57.667 46.7618 57.6644 46.7744 57.6614Z" stroke="#EBEBEB" stroke-width="7.57499"/>
</svg>
