<svg width="51" height="52" viewBox="0 0 51 52" fill="none" xmlns="http://www.w3.org/2000/svg">
<circle cx="25.5" cy="26" r="25.5" fill="#95B6FF"/>
<mask id="path-2-inside-1_1933_5327" fill="white">
<path d="M13.454 35.9771V32.524C14.517 28.0084 18.5004 29.8677 18.5004 31.7271C18.5004 33.2146 18.1462 35.5344 17.9691 36.5084C17.6149 36.8625 17.1191 38.1552 17.9691 40.4927C18.8809 43 18.0625 44.8594 17.9691 45.9219V50.3209C15.6316 49.8959 13.6306 48.55 12.9222 47.9302C13.7722 45.3802 13.6309 42.4406 13.454 41.2896C12.179 38.1021 12.9227 36.4198 13.454 35.9771Z"/>
</mask>
<path d="M13.454 32.524L3.11169 30.0893L2.82899 31.2903V32.524H13.454ZM13.454 35.9771L20.256 44.1395L24.079 40.9536V35.9771H13.454ZM13.454 41.2896L23.9557 39.6755L23.7709 38.4731L23.3191 37.3436L13.454 41.2896ZM12.9222 47.9302L2.84248 44.5703L0.608083 51.2735L5.92563 55.9264L12.9222 47.9302ZM17.9691 50.3209L16.0685 60.7745L28.5941 63.0519V50.3209H17.9691ZM17.9691 45.9219L7.38492 44.9916L7.34412 45.4559V45.9219H17.9691ZM17.9691 40.4927L27.9544 36.8617L27.9544 36.8617L17.9691 40.4927ZM17.9691 36.5084L25.4821 44.0214L27.829 41.6745L28.4227 38.409L17.9691 36.5084ZM2.82899 32.524V35.9771H24.079V32.524H2.82899ZM6.65203 27.8148C0.869126 32.6338 1.61377 40.2977 3.58893 45.2356L23.3191 37.3436C23.1734 36.9795 23.4709 37.5165 23.3421 38.7275C23.2784 39.3263 23.1055 40.1146 22.6976 40.9982C22.3295 41.7958 21.6102 43.0109 20.256 44.1395L6.65203 27.8148ZM2.95231 42.9037C2.93281 42.7768 2.94448 42.8151 2.95444 43.0066C2.96341 43.1788 2.96714 43.4044 2.95702 43.6527C2.94684 43.9025 2.92455 44.128 2.89517 44.3131C2.86499 44.5032 2.83784 44.5842 2.84248 44.5703L23.002 51.2901C24.5695 46.5876 24.283 41.805 23.9557 39.6755L2.95231 42.9037ZM5.92563 55.9264C7.62849 57.4164 11.3282 59.9126 16.0685 60.7745L19.8698 39.8672C19.9308 39.8783 19.9699 39.8886 19.9865 39.8933C20.0032 39.898 20.0039 39.8989 19.9892 39.8934C19.9745 39.888 19.9503 39.8783 19.9176 39.8635C19.885 39.8488 19.8491 39.8312 19.8115 39.8112C19.7739 39.7913 19.7393 39.7715 19.7095 39.7535C19.6796 39.7355 19.66 39.7224 19.6524 39.7173C19.6439 39.7115 19.6567 39.7198 19.6913 39.7462C19.7091 39.7598 19.7363 39.7809 19.7719 39.8099C19.807 39.8384 19.8567 39.8798 19.9188 39.9341L5.92563 55.9264ZM28.5941 50.3209V45.9219H7.34412V50.3209H28.5941ZM28.5533 46.8521C28.5078 47.3704 28.3981 47.8185 28.5384 47.145C28.6211 46.7478 28.7939 45.921 28.9047 44.9346C29.144 42.803 29.0953 39.9992 27.9544 36.8617L7.98381 44.1237C7.88643 43.856 7.81633 43.5461 7.78662 43.2234C7.75775 42.9097 7.77516 42.6725 7.78738 42.5636C7.79584 42.4882 7.80354 42.4822 7.73506 42.8109C7.72226 42.8723 7.69568 42.999 7.6748 43.1005C7.65158 43.2134 7.62142 43.3624 7.5905 43.5273C7.53393 43.8288 7.44045 44.3598 7.38492 44.9916L28.5533 46.8521ZM27.9544 36.8617C27.9655 36.8922 28.2067 37.5725 28.096 38.7507C28.0415 39.3304 27.8969 40.0684 27.5652 40.8976C27.2723 41.63 26.6747 42.8288 25.4821 44.0214L10.4561 28.9953C7.95251 31.4989 7.14269 34.5966 6.93915 36.7628C6.70448 39.2603 7.12271 41.7557 7.98381 44.1237L27.9544 36.8617ZM28.4227 38.409C28.6106 37.3757 29.1254 34.2454 29.1254 31.7271H7.87537C7.87537 31.7131 7.87454 31.8294 7.85229 32.1027C7.83155 32.3574 7.79943 32.6617 7.75779 32.9957C7.67278 33.6775 7.57048 34.3053 7.5155 34.6077L28.4227 38.409ZM29.1254 31.7271C29.1254 27.4854 26.9594 24.3955 25.1236 22.6765C23.1943 20.8699 20.5905 19.5325 17.6174 19.1827C14.4368 18.8085 10.881 19.6008 7.92726 22.0389C5.10869 24.3654 3.73633 27.4359 3.11169 30.0893L23.7963 34.9586C23.7032 35.3543 23.2273 36.9638 21.4546 38.4271C19.5468 40.0019 17.1861 40.5286 15.1342 40.2871C13.2898 40.0701 11.7483 39.264 10.5991 38.1879C9.54339 37.1993 7.87537 35.0391 7.87537 31.7271H29.1254Z" fill="#8EFFFD" mask="url(#path-2-inside-1_1933_5327)"/>
<mask id="path-4-inside-2_1933_5327" fill="white">
<path d="M37.1404 36.0125V32.5399C36.2565 27.9987 32.9445 29.8686 32.9445 31.7385C32.9445 33.2344 33.2389 35.5673 33.3862 36.5468C33.4688 37.1562 34.0929 38.203 33.3862 40.5537C32.6281 43.0752 33.3085 44.9451 33.3862 46.0136V50.2516C34.7969 49.9062 37.1875 48.8438 37.7188 48.3125C37.012 45.7481 36.9933 42.5127 37.1404 41.3551C38.2005 38.1496 37.1875 36.625 37.1404 36.0125Z"/>
</mask>
<path d="M37.1404 32.5399L47.5697 30.51L47.7654 31.5155V32.5399H37.1404ZM37.1404 36.0125L26.5467 36.828L26.5154 36.4209V36.0125H37.1404ZM37.1404 41.3551L26.6001 40.0157L26.7298 38.9954L27.0527 38.019L37.1404 41.3551ZM37.7188 48.3125L47.9619 45.4895L49.6051 51.4521L45.2318 55.8255L37.7188 48.3125ZM33.3862 50.2516L35.9125 60.5719L22.7612 63.7912V50.2516H33.3862ZM33.3862 46.0136L43.9832 45.2436L44.0112 45.6281V46.0136H33.3862ZM33.3862 40.5537L43.5613 43.6129H43.5613L33.3862 40.5537ZM33.3862 36.5468L43.8931 34.9673L43.9046 35.0437L43.915 35.1202L33.3862 36.5468ZM47.7654 32.5399V36.0125H26.5154V32.5399H47.7654ZM47.734 35.1971C47.6547 34.1665 47.4264 33.4129 47.4213 33.3948C47.4148 33.3719 47.3602 33.1878 47.4732 33.5588C47.6226 34.0491 47.8916 34.9733 48.0668 36.1609C48.4391 38.6844 48.2703 41.5396 47.228 44.6913L27.0527 38.019C27.0778 37.9431 27.0341 38.0512 27.0106 38.3177C26.986 38.595 26.994 38.9208 27.0443 39.2619C27.0929 39.5912 27.1661 39.819 27.1454 39.751C27.1295 39.6987 27.1309 39.704 27.095 39.5876C27.0716 39.5118 27.0239 39.3566 26.9734 39.1782C26.9235 39.0017 26.845 38.7123 26.7697 38.3602C26.6961 38.0158 26.597 37.4819 26.5467 36.828L47.734 35.1971ZM47.6806 42.6945C47.7116 42.4505 47.6975 42.4434 47.693 42.7354C47.6893 42.975 47.694 43.3056 47.7162 43.6848C47.7652 44.5222 47.8746 45.1727 47.9619 45.4895L27.4756 51.1355C26.3483 47.045 26.2999 42.3783 26.6001 40.0157L47.6806 42.6945ZM45.2318 55.8255C43.9785 57.0788 42.5973 57.8431 42.208 58.0611C41.5337 58.4388 40.8389 58.7747 40.2137 59.0538C39.0549 59.5711 37.4653 60.1918 35.9125 60.5719L30.8599 39.9313C30.7719 39.9528 30.7418 39.9635 30.7774 39.9524C30.8082 39.9427 30.8686 39.9228 30.9563 39.8909C31.1379 39.825 31.3508 39.739 31.5508 39.6497C31.766 39.5537 31.8566 39.5027 31.8241 39.521C31.8081 39.5299 31.6792 39.6019 31.4799 39.7368C31.3766 39.8069 31.2174 39.9187 31.0236 40.0713C30.8396 40.2162 30.5454 40.4598 30.2057 40.7995L45.2318 55.8255ZM22.7612 50.2516V46.0136H44.0112V50.2516H22.7612ZM22.7891 46.7837C22.8171 47.1695 22.8834 47.4912 22.776 46.8679C22.7079 46.4726 22.5769 45.7114 22.4933 44.8106C22.3156 42.8964 22.3459 40.3724 23.2111 37.4946L43.5613 43.6129C43.6059 43.4645 43.6369 43.2955 43.6498 43.1267C43.6622 42.9636 43.6533 42.857 43.6523 42.8464C43.6521 42.8447 43.6543 42.869 43.6639 42.9339C43.6744 43.0055 43.6889 43.0943 43.7176 43.2607C43.7385 43.3822 43.7901 43.6757 43.8322 43.9471C43.8757 44.2274 43.9434 44.6953 43.9832 45.2436L22.7891 46.7837ZM23.2111 37.4946C23.1995 37.5332 23.1442 37.7319 23.114 38.0659C23.0991 38.2307 23.0917 38.4144 23.0954 38.6134C23.0992 38.8131 23.1139 39.0099 23.1373 39.1997C23.1851 39.5865 23.2609 39.8624 23.2573 39.8487C23.2519 39.8287 23.249 39.8183 23.2287 39.7442C23.214 39.6902 23.183 39.5768 23.15 39.449C23.1165 39.3188 23.0679 39.1239 23.0182 38.8916C22.9684 38.6593 22.9077 38.345 22.8574 37.9734L43.915 35.1202C43.8409 34.5738 43.7366 34.1807 43.7277 34.1461C43.7184 34.1098 43.7134 34.0922 43.7261 34.1387C43.7333 34.1651 43.7594 34.2599 43.7835 34.3501C43.898 34.7775 44.1012 35.5764 44.227 36.5949C44.4955 38.7682 44.3161 41.1022 43.5613 43.6129L23.2111 37.4946ZM22.8792 38.1263C22.724 37.0933 22.3195 34.0874 22.3195 31.7385H43.5695C43.5695 31.9325 43.5978 32.4582 43.6791 33.2467C43.7534 33.968 43.8428 34.6326 43.8931 34.9673L22.8792 38.1263ZM22.3195 31.7385C22.3195 28.195 23.824 25.3145 25.5112 23.4038C27.2039 21.4866 29.8226 19.6987 33.2139 19.216C37.005 18.6765 40.8322 19.9347 43.6187 22.7167C46.0962 25.1902 47.1206 28.2026 47.5697 30.51L26.7111 34.5697C26.7182 34.6066 26.9971 36.1498 28.605 37.755C30.522 39.6688 33.3554 40.66 36.208 40.254C38.6609 39.9049 40.3963 38.6512 41.4404 37.4687C42.4789 36.2926 43.5695 34.347 43.5695 31.7385H22.3195Z" fill="#8EFFFD" mask="url(#path-4-inside-2_1933_5327)"/>
<mask id="path-6-inside-3_1933_5327" fill="white">
<path d="M20.7188 37.6405C21.5156 32.8725 28.1562 29.9507 30.2812 37.6405H20.7188Z"/>
</mask>
<path d="M20.7188 37.6405L15.4789 36.7648L14.4447 42.953H20.7188V37.6405ZM30.2812 37.6405V42.953H37.2609L35.4018 36.2255L30.2812 37.6405ZM25.9586 38.5162C25.9763 38.4099 26.0391 38.2743 26.1375 38.1687C26.1812 38.1218 26.206 38.1094 26.1917 38.1177C26.1777 38.1258 26.0979 38.1694 25.9447 38.197C25.7842 38.226 25.5593 38.2333 25.3035 38.1725C25.0409 38.1101 24.8419 37.9984 24.7226 37.9048C24.4985 37.7289 24.8277 37.8507 25.1607 39.0555L35.4018 36.2255C34.6723 33.5853 33.3746 31.1887 31.2827 29.5469C29.0941 27.829 26.486 27.303 24.0592 27.7406C19.5838 28.5477 16.2048 32.4214 15.4789 36.7648L25.9586 38.5162ZM30.2812 32.328H20.7188V42.953H30.2812V32.328Z" fill="black" mask="url(#path-6-inside-3_1933_5327)"/>
<path d="M13.2812 32.6406C13.3698 31.6667 14.025 29.7188 15.9375 29.7188C18.3281 29.7188 18.5938 32.1094 18.8594 32.6406" stroke="black" stroke-width="1.0625"/>
<path d="M32.4062 32.6406C32.4948 31.6667 33.15 29.7188 35.0625 29.7188C37.4531 29.7188 37.7188 32.1094 37.9844 32.6406" stroke="black" stroke-width="1.0625"/>
</svg>
