<svg width="167" height="166" viewBox="0 0 167 166" fill="none" xmlns="http://www.w3.org/2000/svg">
<g clip-path="url(#clip0_1816_3967)">
<path d="M166.5 83C166.5 37.1604 129.34 0 83.5 0C37.6604 0 0.5 37.1604 0.5 83C0.5 128.84 37.6604 166 83.5 166C129.34 166 166.5 128.84 166.5 83Z" fill="#FF81D8"/>
<path fill-rule="evenodd" clip-rule="evenodd" d="M108.401 66.4C108.401 80.1519 97.253 91.3 83.5011 91.3C69.7492 91.3 58.6011 80.1519 58.6011 66.4C58.6011 52.6481 69.7492 41.5 83.5011 41.5C97.253 41.5 108.401 52.6481 108.401 66.4ZM100.101 66.4C100.101 75.5679 92.669 83 83.5011 83C74.3332 83 66.9011 75.5679 66.9011 66.4C66.9011 57.2321 74.3332 49.8 83.5011 49.8C92.669 49.8 100.101 57.2321 100.101 66.4Z" fill="white"/>
<path d="M83.501 103.75C56.6323 103.75 33.7395 119.638 25.019 141.897C27.1434 144.006 29.3813 146.002 31.7227 147.873C38.2163 127.437 58.5874 112.05 83.501 112.05C108.415 112.05 128.786 127.437 135.279 147.873C137.621 146.002 139.859 144.007 141.983 141.897C133.263 119.638 110.37 103.75 83.501 103.75Z" fill="white"/>
<path d="M136.37 52.3C149.243 52.3 159.678 41.8646 159.678 28.9918C159.678 16.119 149.243 5.68359 136.37 5.68359C123.497 5.68359 113.062 16.119 113.062 28.9918C113.062 41.8646 123.497 52.3 136.37 52.3Z" fill="white"/>
<path d="M145.64 27.8887V31.7031H128.097V27.8887H145.64ZM138.925 20.7168V39.3496H134.829V20.7168H138.925Z" fill="#FF81D8"/>
</g>
<defs>
<clipPath id="clip0_1816_3967">
<rect width="166" height="166" fill="white" transform="translate(0.5)"/>
</clipPath>
</defs>
</svg>
