<svg width="191" height="161" viewBox="0 0 191 161" fill="none" xmlns="http://www.w3.org/2000/svg">
<g clip-path="url(#clip0_1816_4005)">
<path d="M166.5 46.5H24.5C14.0066 46.5 5.5 55.0066 5.5 65.5V133.5C5.5 143.993 14.0066 152.5 24.5 152.5H166.5C176.993 152.5 185.5 143.993 185.5 133.5V65.5C185.5 55.0066 176.993 46.5 166.5 46.5Z" fill="#76D9D6"/>
<path d="M155.5 0.5H35.5V130.5H155.5V0.5Z" fill="white"/>
<g filter="url(#filter0_d_1816_4005)">
<path d="M95 99.5L182.5 145.875C181.116 147.922 176 152.5 167 152.5H24C13.5 152.5 9.24127 146.484 8.5 145.875L95 99.5Z" fill="#76D9D6"/>
</g>
<g filter="url(#filter1_d_1816_4005)">
<path d="M97.5 100.138L20 151.999C12.6394 152.884 4.96734 149.379 4.96734 143.121C4.96734 113.078 4.5 66.1035 4.5 63.9793C4.5 57.7108 11.9774 46.9994 20.3894 46.5L97.5 100.138Z" fill="#76D9D6"/>
</g>
<g filter="url(#filter2_d_1816_4005)">
<path d="M91.5 98.8622L174.207 46.6251C181.726 45.7407 186.023 49.6212 186.023 55.8785C186.023 85.9221 186.5 132.896 186.5 135.021C186.5 144 178.862 152.001 170.269 152.5L91.5 98.8622Z" fill="#76D9D6"/>
</g>
<path d="M147.5 10.5H43.5V20.5H147.5V10.5Z" fill="#B1C9FF"/>
<path d="M147.5 28.5H43.5V38.5H147.5V28.5Z" fill="#B1C9FF"/>
<path d="M128.5 46.5H43.5V56.5H128.5V46.5Z" fill="#B1C9FF"/>
</g>
<defs>
<filter id="filter0_d_1816_4005" x="4.5" y="99.5" width="182" height="61" filterUnits="userSpaceOnUse" color-interpolation-filters="sRGB">
<feFlood flood-opacity="0" result="BackgroundImageFix"/>
<feColorMatrix in="SourceAlpha" type="matrix" values="0 0 0 0 0 0 0 0 0 0 0 0 0 0 0 0 0 0 127 0" result="hardAlpha"/>
<feOffset dy="4"/>
<feGaussianBlur stdDeviation="2"/>
<feComposite in2="hardAlpha" operator="out"/>
<feColorMatrix type="matrix" values="0 0 0 0 0 0 0 0 0 0 0 0 0 0 0 0 0 0 0.25 0"/>
<feBlend mode="normal" in2="BackgroundImageFix" result="effect1_dropShadow_1816_4005"/>
<feBlend mode="normal" in="SourceGraphic" in2="effect1_dropShadow_1816_4005" result="shape"/>
</filter>
<filter id="filter1_d_1816_4005" x="0.5" y="46.5" width="101" height="113.635" filterUnits="userSpaceOnUse" color-interpolation-filters="sRGB">
<feFlood flood-opacity="0" result="BackgroundImageFix"/>
<feColorMatrix in="SourceAlpha" type="matrix" values="0 0 0 0 0 0 0 0 0 0 0 0 0 0 0 0 0 0 127 0" result="hardAlpha"/>
<feOffset dy="4"/>
<feGaussianBlur stdDeviation="2"/>
<feComposite in2="hardAlpha" operator="out"/>
<feColorMatrix type="matrix" values="0 0 0 0 0 0 0 0 0 0 0 0 0 0 0 0 0 0 0.25 0"/>
<feBlend mode="normal" in2="BackgroundImageFix" result="effect1_dropShadow_1816_4005"/>
<feBlend mode="normal" in="SourceGraphic" in2="effect1_dropShadow_1816_4005" result="shape"/>
</filter>
<filter id="filter2_d_1816_4005" x="87.5" y="46.5" width="103" height="114" filterUnits="userSpaceOnUse" color-interpolation-filters="sRGB">
<feFlood flood-opacity="0" result="BackgroundImageFix"/>
<feColorMatrix in="SourceAlpha" type="matrix" values="0 0 0 0 0 0 0 0 0 0 0 0 0 0 0 0 0 0 127 0" result="hardAlpha"/>
<feOffset dy="4"/>
<feGaussianBlur stdDeviation="2"/>
<feComposite in2="hardAlpha" operator="out"/>
<feColorMatrix type="matrix" values="0 0 0 0 0 0 0 0 0 0 0 0 0 0 0 0 0 0 0.25 0"/>
<feBlend mode="normal" in2="BackgroundImageFix" result="effect1_dropShadow_1816_4005"/>
<feBlend mode="normal" in="SourceGraphic" in2="effect1_dropShadow_1816_4005" result="shape"/>
</filter>
<clipPath id="clip0_1816_4005">
<rect width="190" height="160" fill="white" transform="translate(0.5 0.5)"/>
</clipPath>
</defs>
</svg>
