<svg width="185" height="154" viewBox="0 0 185 154" fill="none" xmlns="http://www.w3.org/2000/svg">
<g clip-path="url(#clip0_1816_4018)">
<path fill-rule="evenodd" clip-rule="evenodd" d="M109.016 41.6479C103.935 16.889 85.9964 1.1875 65.2187 1.1875C44.4409 1.1875 27.4675 16.889 22.6868 41.6479H34.3605C39.3207 24.8131 51.4657 12.9178 65.6612 12.9178C79.8568 12.9178 92.0017 24.8131 96.962 41.6479H109.016Z" fill="#76D9D6"/>
<path d="M117.5 41.4609H14.5C6.76801 41.4609 0.5 47.729 0.5 55.4609V139.461C0.5 147.193 6.76801 153.461 14.5 153.461H117.5C125.232 153.461 131.5 147.193 131.5 139.461V55.4609C131.5 47.729 125.232 41.4609 117.5 41.4609Z" fill="#B1C9FF"/>
<g filter="url(#filter0_d_1816_4018)">
<path fill-rule="evenodd" clip-rule="evenodd" d="M69.598 99.3872C73.5228 97.7614 76.2838 93.8936 76.2838 89.3809C76.2838 83.4018 71.4367 78.5547 65.4575 78.5547C59.4784 78.5547 54.6313 83.4018 54.6313 89.3809C54.6313 93.9573 57.4707 97.8704 61.4839 99.4547L54.6313 120.505H76.2838L69.598 99.3872Z" fill="url(#paint0_linear_1816_4018)"/>
</g>
<path d="M170.5 32.4609H53.5C45.768 32.4609 39.5 38.729 39.5 46.4609V53.4609C39.5 61.1929 45.768 67.4609 53.5 67.4609H170.5C178.232 67.4609 184.5 61.1929 184.5 53.4609V46.4609C184.5 38.729 178.232 32.4609 170.5 32.4609Z" fill="white"/>
<path d="M57.1523 51.6094L61.0781 46.2188L55.1797 44.4609L56.0977 41.5312L61.9961 43.6992L61.8203 36.9805H64.7891L64.5938 43.8164L70.4141 41.6484L71.3125 44.6367L65.3164 46.4141L69.1641 51.707L66.7422 53.5234L63.1289 47.8984L59.5938 53.3867L57.1523 51.6094Z" fill="#76D9D6"/>
<path d="M83.1523 51.6094L87.0781 46.2188L81.1797 44.4609L82.0977 41.5312L87.9961 43.6992L87.8203 36.9805H90.7891L90.5938 43.8164L96.4141 41.6484L97.3125 44.6367L91.3164 46.4141L95.1641 51.707L92.7422 53.5234L89.1289 47.8984L85.5938 53.3867L83.1523 51.6094Z" fill="#76D9D6"/>
<path d="M109.153 51.6094L113.078 46.2188L107.18 44.4609L108.098 41.5312L113.996 43.6992L113.821 36.9805H116.789L116.594 43.8164L122.414 41.6484L123.313 44.6367L117.317 46.4141L121.164 51.707L118.742 53.5234L115.129 47.8984L111.594 53.3867L109.153 51.6094Z" fill="#76D9D6"/>
<path d="M135.153 51.6094L139.078 46.2188L133.18 44.4609L134.098 41.5312L139.996 43.6992L139.821 36.9805H142.789L142.594 43.8164L148.414 41.6484L149.313 44.6367L143.317 46.4141L147.164 51.707L144.742 53.5234L141.129 47.8984L137.594 53.3867L135.153 51.6094Z" fill="#76D9D6"/>
<path d="M161.153 51.6094L165.078 46.2188L159.18 44.4609L160.098 41.5312L165.996 43.6992L165.821 36.9805H168.789L168.594 43.8164L174.414 41.6484L175.313 44.6367L169.317 46.4141L173.164 51.707L170.742 53.5234L167.129 47.8984L163.594 53.3867L161.153 51.6094Z" fill="#76D9D6"/>
</g>
<defs>
<filter id="filter0_d_1816_4018" x="50.6313" y="78.5547" width="29.6526" height="49.9512" filterUnits="userSpaceOnUse" color-interpolation-filters="sRGB">
<feFlood flood-opacity="0" result="BackgroundImageFix"/>
<feColorMatrix in="SourceAlpha" type="matrix" values="0 0 0 0 0 0 0 0 0 0 0 0 0 0 0 0 0 0 127 0" result="hardAlpha"/>
<feOffset dy="4"/>
<feGaussianBlur stdDeviation="2"/>
<feComposite in2="hardAlpha" operator="out"/>
<feColorMatrix type="matrix" values="0 0 0 0 0 0 0 0 0 0 0 0 0 0 0 0 0 0 0.25 0"/>
<feBlend mode="normal" in2="BackgroundImageFix" result="effect1_dropShadow_1816_4018"/>
<feBlend mode="normal" in="SourceGraphic" in2="effect1_dropShadow_1816_4018" result="shape"/>
</filter>
<linearGradient id="paint0_linear_1816_4018" x1="65.4575" y1="78.5547" x2="65.4575" y2="120.505" gradientUnits="userSpaceOnUse">
<stop stop-color="#3E4044"/>
<stop offset="1" stop-color="#262626"/>
</linearGradient>
<clipPath id="clip0_1816_4018">
<rect width="184" height="153" fill="white" transform="translate(0.5 0.5)"/>
</clipPath>
</defs>
</svg>
