<svg width="265" height="56" viewBox="0 0 265 56" fill="none" xmlns="http://www.w3.org/2000/svg">
<path d="M16.72 24.4L9.44 10.88H15.248L19.104 18.928L22.976 10.88H28.752L21.504 24.4V32H16.72V24.4ZM35.282 32.384C33.842 32.384 32.562 32.0907 31.442 31.504C30.3327 30.9067 29.458 30.0907 28.818 29.056C28.1887 28.0107 27.874 26.816 27.874 25.472C27.874 24.128 28.1887 22.9333 28.818 21.888C29.458 20.832 30.3327 20 31.442 19.392C32.562 18.784 33.842 18.48 35.282 18.48C36.722 18.48 37.9913 18.784 39.09 19.392C40.1887 20 41.0473 20.832 41.666 21.888C42.2847 22.9333 42.594 24.128 42.594 25.472C42.594 26.816 42.2847 28.0107 41.666 29.056C41.0473 30.0907 40.1887 30.9067 39.09 31.504C37.9913 32.0907 36.722 32.384 35.282 32.384ZM35.282 28.384C35.8367 28.384 36.3167 28.2613 36.722 28.016C37.1273 27.7707 37.442 27.424 37.666 26.976C37.89 26.528 38.002 26.0213 38.002 25.456C38.002 24.88 37.89 24.368 37.666 23.92C37.442 23.472 37.1273 23.12 36.722 22.864C36.3167 22.608 35.8367 22.48 35.282 22.48C34.7273 22.48 34.242 22.608 33.826 22.864C33.4207 23.12 33.1007 23.472 32.866 23.92C32.642 24.368 32.53 24.88 32.53 25.456C32.53 26.0213 32.642 26.528 32.866 26.976C33.1007 27.424 33.4207 27.7707 33.826 28.016C34.242 28.2613 34.7273 28.384 35.282 28.384ZM49.7333 24.944C49.7333 25.9893 49.9306 26.8267 50.3253 27.456C50.7199 28.0747 51.3813 28.384 52.3093 28.384C53.2586 28.384 53.9253 28.0747 54.3093 27.456C54.7039 26.8267 54.9013 25.9893 54.9013 24.944V18.864H59.7013V25.456C59.7013 26.864 59.4079 28.0907 58.8213 29.136C58.2453 30.1707 57.4079 30.9707 56.3093 31.536C55.2106 32.1013 53.8773 32.384 52.3093 32.384C50.7519 32.384 49.4239 32.1013 48.3253 31.536C47.2266 30.9707 46.3893 30.1707 45.8133 29.136C45.2373 28.0907 44.9493 26.864 44.9493 25.456V18.864H49.7333V24.944ZM81.3173 32V29.872C81.2213 30.0853 80.9759 30.3947 80.5813 30.8C80.1973 31.2053 79.6853 31.5733 79.0453 31.904C78.4053 32.224 77.6586 32.384 76.8053 32.384C75.5253 32.384 74.4053 32.0747 73.4453 31.456C72.4853 30.8267 71.7386 29.9893 71.2053 28.944C70.6719 27.888 70.4053 26.72 70.4053 25.44C70.4053 24.16 70.6719 22.9973 71.2053 21.952C71.7386 20.896 72.4853 20.0533 73.4453 19.424C74.4053 18.7947 75.5253 18.48 76.8053 18.48C77.6266 18.48 78.3466 18.6133 78.9653 18.88C79.5839 19.136 80.0853 19.4453 80.4693 19.808C80.8533 20.16 81.1199 20.4853 81.2693 20.784V18.864H86.1013V32H81.3173ZM75.1733 25.44C75.1733 26.0373 75.3119 26.576 75.5893 27.056C75.8666 27.5253 76.2346 27.8933 76.6933 28.16C77.1626 28.4267 77.6799 28.56 78.2453 28.56C78.8319 28.56 79.3493 28.4267 79.7973 28.16C80.2453 27.8933 80.5973 27.5253 80.8533 27.056C81.1199 26.576 81.2533 26.0373 81.2533 25.44C81.2533 24.8427 81.1199 24.3093 80.8533 23.84C80.5973 23.36 80.2453 22.9867 79.7973 22.72C79.3493 22.4427 78.8319 22.304 78.2453 22.304C77.6799 22.304 77.1626 22.4427 76.6933 22.72C76.2346 22.9867 75.8666 23.36 75.5893 23.84C75.3119 24.3093 75.1733 24.8427 75.1733 25.44ZM93.6358 32H88.7718V18.864H93.6358V20.896H93.5558C93.6411 20.6507 93.8491 20.3413 94.1798 19.968C94.5104 19.584 94.9744 19.2427 95.5718 18.944C96.1691 18.6347 96.8998 18.48 97.7638 18.48C98.3718 18.48 98.9318 18.576 99.4438 18.768C99.9558 18.9493 100.329 19.1253 100.564 19.296L98.6758 23.248C98.5264 23.0667 98.2598 22.88 97.8758 22.688C97.5024 22.4853 97.0331 22.384 96.4678 22.384C95.8171 22.384 95.2784 22.5493 94.8518 22.88C94.4358 23.2107 94.1264 23.6107 93.9238 24.08C93.7318 24.5493 93.6358 24.992 93.6358 25.408V32ZM105.404 26.464C105.436 26.9333 105.585 27.3493 105.852 27.712C106.118 28.0747 106.486 28.3627 106.956 28.576C107.436 28.7787 108.001 28.88 108.652 28.88C109.27 28.88 109.825 28.816 110.316 28.688C110.817 28.56 111.249 28.4 111.612 28.208C111.985 28.016 112.273 27.8187 112.476 27.616L114.364 30.624C114.097 30.912 113.718 31.1947 113.228 31.472C112.748 31.7387 112.113 31.9573 111.324 32.128C110.534 32.2987 109.537 32.384 108.332 32.384C106.881 32.384 105.59 32.112 104.46 31.568C103.329 31.024 102.438 30.224 101.788 29.168C101.137 28.112 100.812 26.8213 100.812 25.296C100.812 24.016 101.089 22.864 101.644 21.84C102.209 20.8053 103.025 19.9893 104.092 19.392C105.158 18.784 106.444 18.48 107.948 18.48C109.377 18.48 110.614 18.7413 111.66 19.264C112.716 19.7867 113.526 20.5653 114.092 21.6C114.668 22.624 114.956 23.904 114.956 25.44C114.956 25.5253 114.95 25.696 114.94 25.952C114.94 26.208 114.929 26.3787 114.908 26.464H105.404ZM110.38 23.92C110.369 23.5787 110.278 23.2427 110.108 22.912C109.937 22.5707 109.681 22.2933 109.34 22.08C108.998 21.856 108.561 21.744 108.028 21.744C107.494 21.744 107.041 21.8507 106.668 22.064C106.305 22.2667 106.028 22.5333 105.836 22.864C105.644 23.1947 105.537 23.5467 105.516 23.92H110.38ZM134.978 18.48C135.895 18.48 136.791 18.6667 137.666 19.04C138.54 19.4133 139.26 20.0053 139.826 20.816C140.391 21.616 140.674 22.672 140.674 23.984V32H135.794V24.784C135.794 23.8453 135.57 23.1413 135.122 22.672C134.674 22.192 134.087 21.952 133.362 21.952C132.882 21.952 132.428 22.08 132.002 22.336C131.586 22.5813 131.244 22.9333 130.978 23.392C130.722 23.84 130.594 24.3573 130.594 24.944V32H125.73V18.864H130.594V20.8C130.722 20.448 130.988 20.096 131.394 19.744C131.81 19.3813 132.327 19.0827 132.946 18.848C133.575 18.6027 134.252 18.48 134.978 18.48ZM150.188 32.384C148.748 32.384 147.468 32.0907 146.348 31.504C145.239 30.9067 144.364 30.0907 143.724 29.056C143.095 28.0107 142.78 26.816 142.78 25.472C142.78 24.128 143.095 22.9333 143.724 21.888C144.364 20.832 145.239 20 146.348 19.392C147.468 18.784 148.748 18.48 150.188 18.48C151.628 18.48 152.898 18.784 153.996 19.392C155.095 20 155.954 20.832 156.572 21.888C157.191 22.9333 157.5 24.128 157.5 25.472C157.5 26.816 157.191 28.0107 156.572 29.056C155.954 30.0907 155.095 30.9067 153.996 31.504C152.898 32.0907 151.628 32.384 150.188 32.384ZM150.188 28.384C150.743 28.384 151.223 28.2613 151.628 28.016C152.034 27.7707 152.348 27.424 152.572 26.976C152.796 26.528 152.908 26.0213 152.908 25.456C152.908 24.88 152.796 24.368 152.572 23.92C152.348 23.472 152.034 23.12 151.628 22.864C151.223 22.608 150.743 22.48 150.188 22.48C149.634 22.48 149.148 22.608 148.732 22.864C148.327 23.12 148.007 23.472 147.772 23.92C147.548 24.368 147.436 24.88 147.436 25.456C147.436 26.0213 147.548 26.528 147.772 26.976C148.007 27.424 148.327 27.7707 148.732 28.016C149.148 28.2613 149.634 28.384 150.188 28.384ZM158.912 18.864H161.152V13.472H165.968V18.864H168.912V22.864H165.968V26.528C165.968 27.072 166.048 27.5147 166.208 27.856C166.368 28.1867 166.661 28.352 167.088 28.352C167.376 28.352 167.621 28.288 167.824 28.16C168.026 28.032 168.149 27.9467 168.192 27.904L169.856 31.36C169.781 31.424 169.546 31.5413 169.152 31.712C168.768 31.8827 168.277 32.0373 167.68 32.176C167.082 32.3147 166.416 32.384 165.68 32.384C164.368 32.384 163.285 32.016 162.432 31.28C161.578 30.5333 161.152 29.3867 161.152 27.84V22.864H158.912V18.864ZM190.317 32V29.872C190.221 30.0853 189.976 30.3947 189.581 30.8C189.197 31.2053 188.685 31.5733 188.045 31.904C187.405 32.224 186.659 32.384 185.805 32.384C184.525 32.384 183.405 32.0747 182.445 31.456C181.485 30.8267 180.739 29.9893 180.205 28.944C179.672 27.888 179.405 26.72 179.405 25.44C179.405 24.16 179.672 22.9973 180.205 21.952C180.739 20.896 181.485 20.0533 182.445 19.424C183.405 18.7947 184.525 18.48 185.805 18.48C186.627 18.48 187.347 18.6133 187.965 18.88C188.584 19.136 189.085 19.4453 189.469 19.808C189.853 20.16 190.12 20.4853 190.269 20.784V18.864H195.101V32H190.317ZM184.173 25.44C184.173 26.0373 184.312 26.576 184.589 27.056C184.867 27.5253 185.235 27.8933 185.693 28.16C186.163 28.4267 186.68 28.56 187.245 28.56C187.832 28.56 188.349 28.4267 188.797 28.16C189.245 27.8933 189.597 27.5253 189.853 27.056C190.12 26.576 190.253 26.0373 190.253 25.44C190.253 24.8427 190.12 24.3093 189.853 23.84C189.597 23.36 189.245 22.9867 188.797 22.72C188.349 22.4427 187.832 22.304 187.245 22.304C186.68 22.304 186.163 22.4427 185.693 22.72C185.235 22.9867 184.867 23.36 184.589 23.84C184.312 24.3093 184.173 24.8427 184.173 25.44ZM203.052 32H198.172V9.984H203.052V32ZM212.876 32.384C211.436 32.384 210.156 32.0907 209.036 31.504C207.926 30.9067 207.052 30.0907 206.412 29.056C205.782 28.0107 205.468 26.816 205.468 25.472C205.468 24.128 205.782 22.9333 206.412 21.888C207.052 20.832 207.926 20 209.036 19.392C210.156 18.784 211.436 18.48 212.876 18.48C214.316 18.48 215.585 18.784 216.684 19.392C217.782 20 218.641 20.832 219.26 21.888C219.878 22.9333 220.188 24.128 220.188 25.472C220.188 26.816 219.878 28.0107 219.26 29.056C218.641 30.0907 217.782 30.9067 216.684 31.504C215.585 32.0907 214.316 32.384 212.876 32.384ZM212.876 28.384C213.43 28.384 213.91 28.2613 214.316 28.016C214.721 27.7707 215.036 27.424 215.26 26.976C215.484 26.528 215.596 26.0213 215.596 25.456C215.596 24.88 215.484 24.368 215.26 23.92C215.036 23.472 214.721 23.12 214.316 22.864C213.91 22.608 213.43 22.48 212.876 22.48C212.321 22.48 211.836 22.608 211.42 22.864C211.014 23.12 210.694 23.472 210.46 23.92C210.236 24.368 210.124 24.88 210.124 25.456C210.124 26.0213 210.236 26.528 210.46 26.976C210.694 27.424 211.014 27.7707 211.42 28.016C211.836 28.2613 212.321 28.384 212.876 28.384ZM231.759 18.48C232.676 18.48 233.572 18.6667 234.447 19.04C235.322 19.4133 236.042 20.0053 236.607 20.816C237.172 21.616 237.455 22.672 237.455 23.984V32H232.575V24.784C232.575 23.8453 232.351 23.1413 231.903 22.672C231.455 22.192 230.868 21.952 230.143 21.952C229.663 21.952 229.21 22.08 228.783 22.336C228.367 22.5813 228.026 22.9333 227.759 23.392C227.503 23.84 227.375 24.3573 227.375 24.944V32H222.511V18.864H227.375V20.8C227.503 20.448 227.77 20.096 228.175 19.744C228.591 19.3813 229.108 19.0827 229.727 18.848C230.356 18.6027 231.034 18.48 231.759 18.48ZM244.154 26.464C244.186 26.9333 244.335 27.3493 244.602 27.712C244.868 28.0747 245.236 28.3627 245.706 28.576C246.186 28.7787 246.751 28.88 247.402 28.88C248.02 28.88 248.575 28.816 249.066 28.688C249.567 28.56 249.999 28.4 250.362 28.208C250.735 28.016 251.023 27.8187 251.226 27.616L253.114 30.624C252.847 30.912 252.468 31.1947 251.978 31.472C251.498 31.7387 250.863 31.9573 250.074 32.128C249.284 32.2987 248.287 32.384 247.082 32.384C245.631 32.384 244.34 32.112 243.21 31.568C242.079 31.024 241.188 30.224 240.538 29.168C239.887 28.112 239.562 26.8213 239.562 25.296C239.562 24.016 239.839 22.864 240.394 21.84C240.959 20.8053 241.775 19.9893 242.842 19.392C243.908 18.784 245.194 18.48 246.698 18.48C248.127 18.48 249.364 18.7413 250.41 19.264C251.466 19.7867 252.276 20.5653 252.842 21.6C253.418 22.624 253.706 23.904 253.706 25.44C253.706 25.5253 253.7 25.696 253.69 25.952C253.69 26.208 253.679 26.3787 253.658 26.464H244.154ZM249.13 23.92C249.119 23.5787 249.028 23.2427 248.858 22.912C248.687 22.5707 248.431 22.2933 248.09 22.08C247.748 21.856 247.311 21.744 246.778 21.744C246.244 21.744 245.791 21.8507 245.418 22.064C245.055 22.2667 244.778 22.5333 244.586 22.864C244.394 23.1947 244.287 23.5467 244.266 23.92H249.13Z" fill="white"/>
<path d="M55.95 53.1C55.39 53.1 54.87 53.0133 54.39 52.84C53.9167 52.6667 53.5034 52.42 53.15 52.1C52.8034 51.7733 52.53 51.39 52.33 50.95C52.1367 50.5033 52.04 50.0167 52.04 49.49C52.04 48.9833 52.1367 48.5133 52.33 48.08C52.53 47.6467 52.8034 47.27 53.15 46.95C53.5034 46.63 53.9134 46.3833 54.38 46.21C54.8534 46.0367 55.36 45.95 55.9 45.95C56.2934 45.95 56.6734 46.0033 57.04 46.11C57.4134 46.2167 57.7567 46.36 58.07 46.54C58.3834 46.7133 58.64 46.9067 58.84 47.12L58.35 47.78C58.15 47.5667 57.92 47.3833 57.66 47.23C57.4 47.07 57.1167 46.9467 56.81 46.86C56.51 46.7667 56.1967 46.72 55.87 46.72C55.45 46.72 55.0567 46.7867 54.69 46.92C54.33 47.0533 54.01 47.2433 53.73 47.49C53.4567 47.7367 53.24 48.03 53.08 48.37C52.9267 48.71 52.85 49.0833 52.85 49.49C52.85 49.9233 52.93 50.3167 53.09 50.67C53.25 51.0167 53.4734 51.3133 53.76 51.56C54.0534 51.8067 54.3867 51.9967 54.76 52.13C55.14 52.2633 55.5534 52.33 56 52.33C56.34 52.33 56.6567 52.2867 56.95 52.2C57.25 52.1067 57.52 51.9867 57.76 51.84C58 51.6933 58.2067 51.5333 58.38 51.36L58.76 52.02C58.5867 52.2067 58.35 52.3833 58.05 52.55C57.75 52.71 57.42 52.8433 57.06 52.95C56.7 53.05 56.33 53.1 55.95 53.1ZM64.6714 53.1C64.0981 53.1 63.5714 53.01 63.0914 52.83C62.6114 52.6433 62.1948 52.39 61.8414 52.07C61.4881 51.75 61.2148 51.3733 61.0214 50.94C60.8281 50.5 60.7314 50.0267 60.7314 49.52C60.7314 49.0067 60.8281 48.5333 61.0214 48.1C61.2148 47.6667 61.4881 47.2867 61.8414 46.96C62.1948 46.6333 62.6114 46.38 63.0914 46.2C63.5714 46.02 64.0981 45.93 64.6714 45.93C65.2514 45.93 65.7781 46.02 66.2514 46.2C66.7314 46.3733 67.1481 46.6233 67.5014 46.95C67.8614 47.2767 68.1381 47.66 68.3314 48.1C68.5314 48.5333 68.6314 49.0067 68.6314 49.52C68.6314 50.0267 68.5314 50.5 68.3314 50.94C68.1381 51.3733 67.8614 51.7533 67.5014 52.08C67.1481 52.4067 66.7314 52.66 66.2514 52.84C65.7781 53.0133 65.2514 53.1 64.6714 53.1ZM64.6714 52.33C65.1314 52.33 65.5514 52.26 65.9314 52.12C66.3181 51.98 66.6514 51.7833 66.9314 51.53C67.2181 51.27 67.4381 50.97 67.5914 50.63C67.7448 50.29 67.8214 49.92 67.8214 49.52C67.8214 49.12 67.7448 48.7467 67.5914 48.4C67.4381 48.0533 67.2181 47.7533 66.9314 47.5C66.6514 47.2467 66.3181 47.05 65.9314 46.91C65.5514 46.7633 65.1314 46.69 64.6714 46.69C64.2114 46.69 63.7881 46.7633 63.4014 46.91C63.0214 47.05 62.6914 47.2467 62.4114 47.5C62.1314 47.7467 61.9148 48.0433 61.7614 48.39C61.6148 48.7367 61.5414 49.1133 61.5414 49.52C61.5414 49.92 61.6148 50.2933 61.7614 50.64C61.9148 50.98 62.1314 51.2767 62.4114 51.53C62.6914 51.7833 63.0214 51.98 63.4014 52.12C63.7881 52.26 64.2114 52.33 64.6714 52.33ZM71.2038 53V46H71.9638L77.4738 52.09L77.3738 52.27C77.3538 52.1367 77.3371 51.9467 77.3238 51.7C77.3105 51.4533 77.3005 51.1833 77.2938 50.89C77.2871 50.5967 77.2805 50.3033 77.2738 50.01C77.2671 49.71 77.2605 49.4333 77.2538 49.18C77.2538 48.9267 77.2538 48.7233 77.2538 48.57V46H78.0338V53H77.2438L71.7838 47.02L71.8438 46.81C71.8571 46.9567 71.8671 47.1367 71.8738 47.35C71.8871 47.5567 71.9005 47.7767 71.9138 48.01C71.9271 48.2433 71.9371 48.4767 71.9438 48.71C71.9571 48.9367 71.9671 49.1467 71.9738 49.34C71.9805 49.5333 71.9838 49.6933 71.9838 49.82V53H71.2038ZM81.1745 53V46H81.9345L87.4445 52.09L87.3445 52.27C87.3245 52.1367 87.3078 51.9467 87.2945 51.7C87.2812 51.4533 87.2712 51.1833 87.2645 50.89C87.2578 50.5967 87.2512 50.3033 87.2445 50.01C87.2378 49.71 87.2312 49.4333 87.2245 49.18C87.2245 48.9267 87.2245 48.7233 87.2245 48.57V46H88.0045V53H87.2145L81.7545 47.02L81.8145 46.81C81.8278 46.9567 81.8378 47.1367 81.8445 47.35C81.8578 47.5567 81.8712 47.7767 81.8845 48.01C81.8978 48.2433 81.9078 48.4767 81.9145 48.71C81.9278 48.9367 81.9378 49.1467 81.9445 49.34C81.9512 49.5333 81.9545 49.6933 81.9545 49.82V53H81.1745ZM91.1452 53V46H96.2752V46.76H91.9252V52.24H96.2552V53H91.1452ZM91.5452 49.78V49.02H95.7152V49.78H91.5452ZM102.454 53.1C101.894 53.1 101.374 53.0133 100.894 52.84C100.421 52.6667 100.007 52.42 99.6539 52.1C99.3073 51.7733 99.0339 51.39 98.8339 50.95C98.6406 50.5033 98.5439 50.0167 98.5439 49.49C98.5439 48.9833 98.6406 48.5133 98.8339 48.08C99.0339 47.6467 99.3073 47.27 99.6539 46.95C100.007 46.63 100.417 46.3833 100.884 46.21C101.357 46.0367 101.864 45.95 102.404 45.95C102.797 45.95 103.177 46.0033 103.544 46.11C103.917 46.2167 104.261 46.36 104.574 46.54C104.887 46.7133 105.144 46.9067 105.344 47.12L104.854 47.78C104.654 47.5667 104.424 47.3833 104.164 47.23C103.904 47.07 103.621 46.9467 103.314 46.86C103.014 46.7667 102.701 46.72 102.374 46.72C101.954 46.72 101.561 46.7867 101.194 46.92C100.834 47.0533 100.514 47.2433 100.234 47.49C99.9606 47.7367 99.7439 48.03 99.5839 48.37C99.4306 48.71 99.3539 49.0833 99.3539 49.49C99.3539 49.9233 99.4339 50.3167 99.5939 50.67C99.7539 51.0167 99.9773 51.3133 100.264 51.56C100.557 51.8067 100.891 51.9967 101.264 52.13C101.644 52.2633 102.057 52.33 102.504 52.33C102.844 52.33 103.161 52.2867 103.454 52.2C103.754 52.1067 104.024 51.9867 104.264 51.84C104.504 51.6933 104.711 51.5333 104.884 51.36L105.264 52.02C105.091 52.2067 104.854 52.3833 104.554 52.55C104.254 52.71 103.924 52.8433 103.564 52.95C103.204 53.05 102.834 53.1 102.454 53.1ZM109.395 53V46.76H106.955V46H112.705V46.76H110.175V53H109.395ZM114.873 53V52.23H116.443V46.77H114.873V46H118.803V46.77H117.223V52.23H118.803V53H114.873ZM121.829 53V46H122.589L128.099 52.09L127.999 52.27C127.979 52.1367 127.962 51.9467 127.949 51.7C127.935 51.4533 127.925 51.1833 127.919 50.89C127.912 50.5967 127.905 50.3033 127.899 50.01C127.892 49.71 127.885 49.4333 127.879 49.18C127.879 48.9267 127.879 48.7233 127.879 48.57V46H128.659V53H127.869L122.409 47.02L122.469 46.81C122.482 46.9567 122.492 47.1367 122.499 47.35C122.512 47.5567 122.525 47.7767 122.539 48.01C122.552 48.2433 122.562 48.4767 122.569 48.71C122.582 48.9367 122.592 49.1467 122.599 49.34C122.605 49.5333 122.609 49.6933 122.609 49.82V53H121.829ZM135.269 53.1C134.709 53.1 134.183 53.0167 133.689 52.85C133.203 52.6833 132.776 52.4433 132.409 52.13C132.043 51.8167 131.753 51.44 131.539 51C131.333 50.5533 131.229 50.0567 131.229 49.51C131.229 49.0033 131.333 48.5333 131.539 48.1C131.746 47.6667 132.033 47.29 132.399 46.97C132.766 46.6433 133.196 46.3933 133.689 46.22C134.183 46.04 134.716 45.95 135.289 45.95C135.716 45.95 136.123 46.0033 136.509 46.11C136.903 46.21 137.256 46.3467 137.569 46.52C137.889 46.6933 138.139 46.8867 138.319 47.1L137.819 47.67C137.606 47.4767 137.363 47.31 137.089 47.17C136.816 47.03 136.526 46.92 136.219 46.84C135.913 46.7533 135.606 46.71 135.299 46.71C134.839 46.71 134.413 46.78 134.019 46.92C133.626 47.06 133.283 47.2567 132.989 47.51C132.696 47.7567 132.466 48.05 132.299 48.39C132.139 48.73 132.059 49.1033 132.059 49.51C132.059 49.9433 132.143 50.3367 132.309 50.69C132.476 51.0433 132.709 51.34 133.009 51.58C133.316 51.82 133.666 52.0067 134.059 52.14C134.453 52.2667 134.873 52.33 135.319 52.33C135.713 52.33 136.083 52.2833 136.429 52.19C136.776 52.09 137.079 51.95 137.339 51.77C137.599 51.59 137.803 51.3867 137.949 51.16C138.096 50.9267 138.166 50.6833 138.159 50.43V50.13L138.329 50.38H135.309V49.61H138.959C138.973 49.67 138.979 49.7333 138.979 49.8C138.986 49.86 138.989 49.92 138.989 49.98C138.996 50.04 138.999 50.09 138.999 50.13C138.999 50.57 138.906 50.9733 138.719 51.34C138.533 51.7 138.269 52.0133 137.929 52.28C137.589 52.54 137.193 52.7433 136.739 52.89C136.286 53.03 135.796 53.1 135.269 53.1ZM145.569 53V46H150.699V46.76H146.349V52.24H150.679V53H145.569ZM145.969 49.78V49.02H150.139V49.78H145.969ZM153.538 53V46H154.308L157.418 50.28H157.098L160.238 46H160.978V53H160.198V49.76C160.191 49.18 160.198 48.65 160.218 48.17C160.238 47.6833 160.278 47.1967 160.338 46.71L160.458 46.99L157.508 50.94H156.968L154.058 47.01L154.178 46.72C154.231 47.18 154.268 47.65 154.288 48.13C154.314 48.61 154.328 49.1533 154.328 49.76L154.318 53H153.538ZM167.484 53.1C166.911 53.1 166.384 53.01 165.904 52.83C165.424 52.6433 165.007 52.39 164.654 52.07C164.301 51.75 164.027 51.3733 163.834 50.94C163.641 50.5 163.544 50.0267 163.544 49.52C163.544 49.0067 163.641 48.5333 163.834 48.1C164.027 47.6667 164.301 47.2867 164.654 46.96C165.007 46.6333 165.424 46.38 165.904 46.2C166.384 46.02 166.911 45.93 167.484 45.93C168.064 45.93 168.591 46.02 169.064 46.2C169.544 46.3733 169.961 46.6233 170.314 46.95C170.674 47.2767 170.951 47.66 171.144 48.1C171.344 48.5333 171.444 49.0067 171.444 49.52C171.444 50.0267 171.344 50.5 171.144 50.94C170.951 51.3733 170.674 51.7533 170.314 52.08C169.961 52.4067 169.544 52.66 169.064 52.84C168.591 53.0133 168.064 53.1 167.484 53.1ZM167.484 52.33C167.944 52.33 168.364 52.26 168.744 52.12C169.131 51.98 169.464 51.7833 169.744 51.53C170.031 51.27 170.251 50.97 170.404 50.63C170.557 50.29 170.634 49.92 170.634 49.52C170.634 49.12 170.557 48.7467 170.404 48.4C170.251 48.0533 170.031 47.7533 169.744 47.5C169.464 47.2467 169.131 47.05 168.744 46.91C168.364 46.7633 167.944 46.69 167.484 46.69C167.024 46.69 166.601 46.7633 166.214 46.91C165.834 47.05 165.504 47.2467 165.224 47.5C164.944 47.7467 164.727 48.0433 164.574 48.39C164.427 48.7367 164.354 49.1133 164.354 49.52C164.354 49.92 164.427 50.2933 164.574 50.64C164.727 50.98 164.944 51.2767 165.224 51.53C165.504 51.7833 165.834 51.98 166.214 52.12C166.601 52.26 167.024 52.33 167.484 52.33ZM175.304 53V46.76H172.864V46H178.614V46.76H176.084V53H175.304ZM180.781 53V52.23H182.351V46.77H180.781V46H184.711V46.77H183.131V52.23H184.711V53H180.781ZM190.961 53.1C190.387 53.1 189.861 53.01 189.381 52.83C188.901 52.6433 188.484 52.39 188.131 52.07C187.777 51.75 187.504 51.3733 187.311 50.94C187.117 50.5 187.021 50.0267 187.021 49.52C187.021 49.0067 187.117 48.5333 187.311 48.1C187.504 47.6667 187.777 47.2867 188.131 46.96C188.484 46.6333 188.901 46.38 189.381 46.2C189.861 46.02 190.387 45.93 190.961 45.93C191.541 45.93 192.067 46.02 192.541 46.2C193.021 46.3733 193.437 46.6233 193.791 46.95C194.151 47.2767 194.427 47.66 194.621 48.1C194.821 48.5333 194.921 49.0067 194.921 49.52C194.921 50.0267 194.821 50.5 194.621 50.94C194.427 51.3733 194.151 51.7533 193.791 52.08C193.437 52.4067 193.021 52.66 192.541 52.84C192.067 53.0133 191.541 53.1 190.961 53.1ZM190.961 52.33C191.421 52.33 191.841 52.26 192.221 52.12C192.607 51.98 192.941 51.7833 193.221 51.53C193.507 51.27 193.727 50.97 193.881 50.63C194.034 50.29 194.111 49.92 194.111 49.52C194.111 49.12 194.034 48.7467 193.881 48.4C193.727 48.0533 193.507 47.7533 193.221 47.5C192.941 47.2467 192.607 47.05 192.221 46.91C191.841 46.7633 191.421 46.69 190.961 46.69C190.501 46.69 190.077 46.7633 189.691 46.91C189.311 47.05 188.981 47.2467 188.701 47.5C188.421 47.7467 188.204 48.0433 188.051 48.39C187.904 48.7367 187.831 49.1133 187.831 49.52C187.831 49.92 187.904 50.2933 188.051 50.64C188.204 50.98 188.421 51.2767 188.701 51.53C188.981 51.7833 189.311 51.98 189.691 52.12C190.077 52.26 190.501 52.33 190.961 52.33ZM197.493 53V46H198.253L203.763 52.09L203.663 52.27C203.643 52.1367 203.626 51.9467 203.613 51.7C203.6 51.4533 203.59 51.1833 203.583 50.89C203.576 50.5967 203.57 50.3033 203.563 50.01C203.556 49.71 203.55 49.4333 203.543 49.18C203.543 48.9267 203.543 48.7233 203.543 48.57V46H204.323V53H203.533L198.073 47.02L198.133 46.81C198.146 46.9567 198.156 47.1367 198.163 47.35C198.176 47.5567 198.19 47.7767 198.203 48.01C198.216 48.2433 198.226 48.4767 198.233 48.71C198.246 48.9367 198.256 49.1467 198.263 49.34C198.27 49.5333 198.273 49.6933 198.273 49.82V53H197.493ZM209.994 53.1C209.567 53.1 209.167 53.05 208.794 52.95C208.42 52.85 208.077 52.7033 207.764 52.51C207.45 52.31 207.167 52.06 206.914 51.76L207.414 51.13C207.794 51.57 208.197 51.8867 208.624 52.08C209.05 52.2733 209.517 52.37 210.024 52.37C210.417 52.37 210.77 52.32 211.084 52.22C211.404 52.1133 211.657 51.9633 211.844 51.77C212.037 51.57 212.134 51.3367 212.134 51.07C212.134 50.8767 212.084 50.72 211.984 50.6C211.89 50.4733 211.764 50.37 211.604 50.29C211.45 50.2033 211.274 50.1333 211.074 50.08C210.88 50.0267 210.68 49.9833 210.474 49.95C210.274 49.91 210.084 49.8733 209.904 49.84C209.524 49.7733 209.17 49.6933 208.844 49.6C208.524 49.5067 208.244 49.39 208.004 49.25C207.764 49.1033 207.577 48.92 207.444 48.7C207.317 48.48 207.254 48.2133 207.254 47.9C207.254 47.6 207.32 47.3267 207.454 47.08C207.594 46.8333 207.787 46.6233 208.034 46.45C208.287 46.2767 208.58 46.1467 208.914 46.06C209.247 45.9733 209.607 45.93 209.994 45.93C210.414 45.93 210.794 45.98 211.134 46.08C211.474 46.1733 211.777 46.3133 212.044 46.5C212.31 46.68 212.54 46.9033 212.734 47.17L212.204 47.74C212.024 47.5067 211.82 47.31 211.594 47.15C211.367 46.99 211.117 46.8667 210.844 46.78C210.577 46.6933 210.29 46.65 209.984 46.65C209.617 46.65 209.29 46.7 209.004 46.8C208.724 46.9 208.497 47.0367 208.324 47.21C208.157 47.3833 208.074 47.59 208.074 47.83C208.074 48.0367 208.124 48.21 208.224 48.35C208.33 48.49 208.48 48.6067 208.674 48.7C208.867 48.7867 209.094 48.8633 209.354 48.93C209.614 48.99 209.907 49.0433 210.234 49.09C210.58 49.15 210.917 49.22 211.244 49.3C211.57 49.38 211.864 49.49 212.124 49.63C212.384 49.7633 212.587 49.94 212.734 50.16C212.88 50.3733 212.954 50.6467 212.954 50.98C212.954 51.4 212.83 51.77 212.584 52.09C212.344 52.41 212 52.66 211.554 52.84C211.114 53.0133 210.594 53.1 209.994 53.1Z" fill="white"/>
</svg>
