<svg width="246" height="47" viewBox="0 0 246 47" fill="none" xmlns="http://www.w3.org/2000/svg">
<path d="M7.72 15.4L0.44 1.88H6.248L10.104 9.928L13.976 1.88H19.752L12.504 15.4V23H7.72V15.4ZM26.282 23.384C24.842 23.384 23.562 23.0907 22.442 22.504C21.3327 21.9067 20.458 21.0907 19.818 20.056C19.1887 19.0107 18.874 17.816 18.874 16.472C18.874 15.128 19.1887 13.9333 19.818 12.888C20.458 11.832 21.3327 11 22.442 10.392C23.562 9.784 24.842 9.48 26.282 9.48C27.722 9.48 28.9913 9.784 30.09 10.392C31.1887 11 32.0473 11.832 32.666 12.888C33.2847 13.9333 33.594 15.128 33.594 16.472C33.594 17.816 33.2847 19.0107 32.666 20.056C32.0473 21.0907 31.1887 21.9067 30.09 22.504C28.9913 23.0907 27.722 23.384 26.282 23.384ZM26.282 19.384C26.8367 19.384 27.3167 19.2613 27.722 19.016C28.1273 18.7707 28.442 18.424 28.666 17.976C28.89 17.528 29.002 17.0213 29.002 16.456C29.002 15.88 28.89 15.368 28.666 14.92C28.442 14.472 28.1273 14.12 27.722 13.864C27.3167 13.608 26.8367 13.48 26.282 13.48C25.7273 13.48 25.242 13.608 24.826 13.864C24.4207 14.12 24.1007 14.472 23.866 14.92C23.642 15.368 23.53 15.88 23.53 16.456C23.53 17.0213 23.642 17.528 23.866 17.976C24.1007 18.424 24.4207 18.7707 24.826 19.016C25.242 19.2613 25.7273 19.384 26.282 19.384ZM40.7333 15.944C40.7333 16.9893 40.9306 17.8267 41.3253 18.456C41.7199 19.0747 42.3813 19.384 43.3093 19.384C44.2586 19.384 44.9253 19.0747 45.3093 18.456C45.7039 17.8267 45.9013 16.9893 45.9013 15.944V9.864H50.7013V16.456C50.7013 17.864 50.4079 19.0907 49.8213 20.136C49.2453 21.1707 48.4079 21.9707 47.3093 22.536C46.2106 23.1013 44.8773 23.384 43.3093 23.384C41.7519 23.384 40.4239 23.1013 39.3253 22.536C38.2266 21.9707 37.3893 21.1707 36.8133 20.136C36.2373 19.0907 35.9493 17.864 35.9493 16.456V9.864H40.7333V15.944ZM72.3173 23V20.872C72.2213 21.0853 71.9759 21.3947 71.5813 21.8C71.1973 22.2053 70.6853 22.5733 70.0453 22.904C69.4053 23.224 68.6586 23.384 67.8053 23.384C66.5253 23.384 65.4053 23.0747 64.4453 22.456C63.4853 21.8267 62.7386 20.9893 62.2053 19.944C61.6719 18.888 61.4053 17.72 61.4053 16.44C61.4053 15.16 61.6719 13.9973 62.2053 12.952C62.7386 11.896 63.4853 11.0533 64.4453 10.424C65.4053 9.79467 66.5253 9.48 67.8053 9.48C68.6266 9.48 69.3466 9.61333 69.9653 9.88C70.5839 10.136 71.0853 10.4453 71.4693 10.808C71.8533 11.16 72.1199 11.4853 72.2693 11.784V9.864H77.1013V23H72.3173ZM66.1733 16.44C66.1733 17.0373 66.3119 17.576 66.5893 18.056C66.8666 18.5253 67.2346 18.8933 67.6933 19.16C68.1626 19.4267 68.6799 19.56 69.2453 19.56C69.8319 19.56 70.3493 19.4267 70.7973 19.16C71.2453 18.8933 71.5973 18.5253 71.8533 18.056C72.1199 17.576 72.2533 17.0373 72.2533 16.44C72.2533 15.8427 72.1199 15.3093 71.8533 14.84C71.5973 14.36 71.2453 13.9867 70.7973 13.72C70.3493 13.4427 69.8319 13.304 69.2453 13.304C68.6799 13.304 68.1626 13.4427 67.6933 13.72C67.2346 13.9867 66.8666 14.36 66.5893 14.84C66.3119 15.3093 66.1733 15.8427 66.1733 16.44ZM84.6358 23H79.7718V9.864H84.6358V11.896H84.5558C84.6411 11.6507 84.8491 11.3413 85.1798 10.968C85.5104 10.584 85.9744 10.2427 86.5718 9.944C87.1691 9.63467 87.8998 9.48 88.7638 9.48C89.3718 9.48 89.9318 9.576 90.4438 9.768C90.9558 9.94933 91.3291 10.1253 91.5638 10.296L89.6758 14.248C89.5264 14.0667 89.2598 13.88 88.8758 13.688C88.5024 13.4853 88.0331 13.384 87.4678 13.384C86.8171 13.384 86.2784 13.5493 85.8518 13.88C85.4358 14.2107 85.1264 14.6107 84.9238 15.08C84.7318 15.5493 84.6358 15.992 84.6358 16.408V23ZM96.4035 17.464C96.4355 17.9333 96.5848 18.3493 96.8515 18.712C97.1182 19.0747 97.4862 19.3627 97.9555 19.576C98.4355 19.7787 99.0008 19.88 99.6515 19.88C100.27 19.88 100.825 19.816 101.316 19.688C101.817 19.56 102.249 19.4 102.612 19.208C102.985 19.016 103.273 18.8187 103.476 18.616L105.364 21.624C105.097 21.912 104.718 22.1947 104.228 22.472C103.748 22.7387 103.113 22.9573 102.324 23.128C101.534 23.2987 100.537 23.384 99.3315 23.384C97.8808 23.384 96.5902 23.112 95.4595 22.568C94.3288 22.024 93.4382 21.224 92.7875 20.168C92.1368 19.112 91.8115 17.8213 91.8115 16.296C91.8115 15.016 92.0888 13.864 92.6435 12.84C93.2088 11.8053 94.0248 10.9893 95.0915 10.392C96.1582 9.784 97.4435 9.48 98.9475 9.48C100.377 9.48 101.614 9.74133 102.66 10.264C103.716 10.7867 104.526 11.5653 105.092 12.6C105.668 13.624 105.956 14.904 105.956 16.44C105.956 16.5253 105.95 16.696 105.94 16.952C105.94 17.208 105.929 17.3787 105.908 17.464H96.4035ZM101.38 14.92C101.369 14.5787 101.278 14.2427 101.108 13.912C100.937 13.5707 100.681 13.2933 100.34 13.08C99.9982 12.856 99.5608 12.744 99.0275 12.744C98.4942 12.744 98.0408 12.8507 97.6675 13.064C97.3048 13.2667 97.0275 13.5333 96.8355 13.864C96.6435 14.1947 96.5368 14.5467 96.5155 14.92H101.38ZM125.978 9.48C126.895 9.48 127.791 9.66667 128.666 10.04C129.54 10.4133 130.26 11.0053 130.826 11.816C131.391 12.616 131.674 13.672 131.674 14.984V23H126.794V15.784C126.794 14.8453 126.57 14.1413 126.122 13.672C125.674 13.192 125.087 12.952 124.362 12.952C123.882 12.952 123.428 13.08 123.002 13.336C122.586 13.5813 122.244 13.9333 121.978 14.392C121.722 14.84 121.594 15.3573 121.594 15.944V23H116.73V9.864H121.594V11.8C121.722 11.448 121.988 11.096 122.394 10.744C122.81 10.3813 123.327 10.0827 123.946 9.848C124.575 9.60267 125.252 9.48 125.978 9.48ZM141.188 23.384C139.748 23.384 138.468 23.0907 137.348 22.504C136.239 21.9067 135.364 21.0907 134.724 20.056C134.095 19.0107 133.78 17.816 133.78 16.472C133.78 15.128 134.095 13.9333 134.724 12.888C135.364 11.832 136.239 11 137.348 10.392C138.468 9.784 139.748 9.48 141.188 9.48C142.628 9.48 143.898 9.784 144.996 10.392C146.095 11 146.954 11.832 147.572 12.888C148.191 13.9333 148.5 15.128 148.5 16.472C148.5 17.816 148.191 19.0107 147.572 20.056C146.954 21.0907 146.095 21.9067 144.996 22.504C143.898 23.0907 142.628 23.384 141.188 23.384ZM141.188 19.384C141.743 19.384 142.223 19.2613 142.628 19.016C143.034 18.7707 143.348 18.424 143.572 17.976C143.796 17.528 143.908 17.0213 143.908 16.456C143.908 15.88 143.796 15.368 143.572 14.92C143.348 14.472 143.034 14.12 142.628 13.864C142.223 13.608 141.743 13.48 141.188 13.48C140.634 13.48 140.148 13.608 139.732 13.864C139.327 14.12 139.007 14.472 138.772 14.92C138.548 15.368 138.436 15.88 138.436 16.456C138.436 17.0213 138.548 17.528 138.772 17.976C139.007 18.424 139.327 18.7707 139.732 19.016C140.148 19.2613 140.634 19.384 141.188 19.384ZM149.912 9.864H152.152V4.472H156.968V9.864H159.912V13.864H156.968V17.528C156.968 18.072 157.048 18.5147 157.208 18.856C157.368 19.1867 157.661 19.352 158.088 19.352C158.376 19.352 158.621 19.288 158.824 19.16C159.026 19.032 159.149 18.9467 159.192 18.904L160.856 22.36C160.781 22.424 160.546 22.5413 160.152 22.712C159.768 22.8827 159.277 23.0373 158.68 23.176C158.082 23.3147 157.416 23.384 156.68 23.384C155.368 23.384 154.285 23.016 153.432 22.28C152.578 21.5333 152.152 20.3867 152.152 18.84V13.864H149.912V9.864ZM181.317 23V20.872C181.221 21.0853 180.976 21.3947 180.581 21.8C180.197 22.2053 179.685 22.5733 179.045 22.904C178.405 23.224 177.659 23.384 176.805 23.384C175.525 23.384 174.405 23.0747 173.445 22.456C172.485 21.8267 171.739 20.9893 171.205 19.944C170.672 18.888 170.405 17.72 170.405 16.44C170.405 15.16 170.672 13.9973 171.205 12.952C171.739 11.896 172.485 11.0533 173.445 10.424C174.405 9.79467 175.525 9.48 176.805 9.48C177.627 9.48 178.347 9.61333 178.965 9.88C179.584 10.136 180.085 10.4453 180.469 10.808C180.853 11.16 181.12 11.4853 181.269 11.784V9.864H186.101V23H181.317ZM175.173 16.44C175.173 17.0373 175.312 17.576 175.589 18.056C175.867 18.5253 176.235 18.8933 176.693 19.16C177.163 19.4267 177.68 19.56 178.245 19.56C178.832 19.56 179.349 19.4267 179.797 19.16C180.245 18.8933 180.597 18.5253 180.853 18.056C181.12 17.576 181.253 17.0373 181.253 16.44C181.253 15.8427 181.12 15.3093 180.853 14.84C180.597 14.36 180.245 13.9867 179.797 13.72C179.349 13.4427 178.832 13.304 178.245 13.304C177.68 13.304 177.163 13.4427 176.693 13.72C176.235 13.9867 175.867 14.36 175.589 14.84C175.312 15.3093 175.173 15.8427 175.173 16.44ZM194.052 23H189.172V0.983999H194.052V23ZM203.876 23.384C202.436 23.384 201.156 23.0907 200.036 22.504C198.926 21.9067 198.052 21.0907 197.412 20.056C196.782 19.0107 196.468 17.816 196.468 16.472C196.468 15.128 196.782 13.9333 197.412 12.888C198.052 11.832 198.926 11 200.036 10.392C201.156 9.784 202.436 9.48 203.876 9.48C205.316 9.48 206.585 9.784 207.684 10.392C208.782 11 209.641 11.832 210.26 12.888C210.878 13.9333 211.188 15.128 211.188 16.472C211.188 17.816 210.878 19.0107 210.26 20.056C209.641 21.0907 208.782 21.9067 207.684 22.504C206.585 23.0907 205.316 23.384 203.876 23.384ZM203.876 19.384C204.43 19.384 204.91 19.2613 205.316 19.016C205.721 18.7707 206.036 18.424 206.26 17.976C206.484 17.528 206.596 17.0213 206.596 16.456C206.596 15.88 206.484 15.368 206.26 14.92C206.036 14.472 205.721 14.12 205.316 13.864C204.91 13.608 204.43 13.48 203.876 13.48C203.321 13.48 202.836 13.608 202.42 13.864C202.014 14.12 201.694 14.472 201.46 14.92C201.236 15.368 201.124 15.88 201.124 16.456C201.124 17.0213 201.236 17.528 201.46 17.976C201.694 18.424 202.014 18.7707 202.42 19.016C202.836 19.2613 203.321 19.384 203.876 19.384ZM222.759 9.48C223.676 9.48 224.572 9.66667 225.447 10.04C226.322 10.4133 227.042 11.0053 227.607 11.816C228.172 12.616 228.455 13.672 228.455 14.984V23H223.575V15.784C223.575 14.8453 223.351 14.1413 222.903 13.672C222.455 13.192 221.868 12.952 221.143 12.952C220.663 12.952 220.21 13.08 219.783 13.336C219.367 13.5813 219.026 13.9333 218.759 14.392C218.503 14.84 218.375 15.3573 218.375 15.944V23H213.511V9.864H218.375V11.8C218.503 11.448 218.77 11.096 219.175 10.744C219.591 10.3813 220.108 10.0827 220.727 9.848C221.356 9.60267 222.034 9.48 222.759 9.48ZM235.154 17.464C235.186 17.9333 235.335 18.3493 235.602 18.712C235.868 19.0747 236.236 19.3627 236.706 19.576C237.186 19.7787 237.751 19.88 238.402 19.88C239.02 19.88 239.575 19.816 240.066 19.688C240.567 19.56 240.999 19.4 241.362 19.208C241.735 19.016 242.023 18.8187 242.226 18.616L244.114 21.624C243.847 21.912 243.468 22.1947 242.978 22.472C242.498 22.7387 241.863 22.9573 241.074 23.128C240.284 23.2987 239.287 23.384 238.082 23.384C236.631 23.384 235.34 23.112 234.21 22.568C233.079 22.024 232.188 21.224 231.538 20.168C230.887 19.112 230.562 17.8213 230.562 16.296C230.562 15.016 230.839 13.864 231.394 12.84C231.959 11.8053 232.775 10.9893 233.842 10.392C234.908 9.784 236.194 9.48 237.698 9.48C239.127 9.48 240.364 9.74133 241.41 10.264C242.466 10.7867 243.276 11.5653 243.842 12.6C244.418 13.624 244.706 14.904 244.706 16.44C244.706 16.5253 244.7 16.696 244.69 16.952C244.69 17.208 244.679 17.3787 244.658 17.464H235.154ZM240.13 14.92C240.119 14.5787 240.028 14.2427 239.858 13.912C239.687 13.5707 239.431 13.2933 239.09 13.08C238.748 12.856 238.311 12.744 237.778 12.744C237.244 12.744 236.791 12.8507 236.418 13.064C236.055 13.2667 235.778 13.5333 235.586 13.864C235.394 14.1947 235.287 14.5467 235.266 14.92H240.13Z" fill="white"/>
<path d="M41.5838 44.1C41.0238 44.1 40.5038 44.0133 40.0238 43.84C39.5505 43.6667 39.1372 43.42 38.7838 43.1C38.4372 42.7733 38.1638 42.39 37.9638 41.95C37.7705 41.5033 37.6738 41.0167 37.6738 40.49C37.6738 39.9833 37.7705 39.5133 37.9638 39.08C38.1638 38.6467 38.4372 38.27 38.7838 37.95C39.1372 37.63 39.5472 37.3833 40.0138 37.21C40.4872 37.0367 40.9938 36.95 41.5338 36.95C41.9272 36.95 42.3072 37.0033 42.6738 37.11C43.0472 37.2167 43.3905 37.36 43.7038 37.54C44.0172 37.7133 44.2738 37.9067 44.4738 38.12L43.9838 38.78C43.7838 38.5667 43.5538 38.3833 43.2938 38.23C43.0338 38.07 42.7505 37.9467 42.4438 37.86C42.1438 37.7667 41.8305 37.72 41.5038 37.72C41.0838 37.72 40.6905 37.7867 40.3238 37.92C39.9638 38.0533 39.6438 38.2433 39.3638 38.49C39.0905 38.7367 38.8738 39.03 38.7138 39.37C38.5605 39.71 38.4838 40.0833 38.4838 40.49C38.4838 40.9233 38.5638 41.3167 38.7238 41.67C38.8838 42.0167 39.1072 42.3133 39.3938 42.56C39.6872 42.8067 40.0205 42.9967 40.3938 43.13C40.7738 43.2633 41.1872 43.33 41.6338 43.33C41.9738 43.33 42.2905 43.2867 42.5838 43.2C42.8838 43.1067 43.1538 42.9867 43.3938 42.84C43.6338 42.6933 43.8405 42.5333 44.0138 42.36L44.3938 43.02C44.2205 43.2067 43.9838 43.3833 43.6838 43.55C43.3838 43.71 43.0538 43.8433 42.6938 43.95C42.3338 44.05 41.9638 44.1 41.5838 44.1ZM50.3052 44.1C49.7319 44.1 49.2052 44.01 48.7252 43.83C48.2452 43.6433 47.8286 43.39 47.4752 43.07C47.1219 42.75 46.8486 42.3733 46.6552 41.94C46.4619 41.5 46.3652 41.0267 46.3652 40.52C46.3652 40.0067 46.4619 39.5333 46.6552 39.1C46.8486 38.6667 47.1219 38.2867 47.4752 37.96C47.8286 37.6333 48.2452 37.38 48.7252 37.2C49.2052 37.02 49.7319 36.93 50.3052 36.93C50.8852 36.93 51.4119 37.02 51.8852 37.2C52.3652 37.3733 52.7819 37.6233 53.1352 37.95C53.4952 38.2767 53.7719 38.66 53.9652 39.1C54.1652 39.5333 54.2652 40.0067 54.2652 40.52C54.2652 41.0267 54.1652 41.5 53.9652 41.94C53.7719 42.3733 53.4952 42.7533 53.1352 43.08C52.7819 43.4067 52.3652 43.66 51.8852 43.84C51.4119 44.0133 50.8852 44.1 50.3052 44.1ZM50.3052 43.33C50.7652 43.33 51.1852 43.26 51.5652 43.12C51.9519 42.98 52.2852 42.7833 52.5652 42.53C52.8519 42.27 53.0719 41.97 53.2252 41.63C53.3786 41.29 53.4552 40.92 53.4552 40.52C53.4552 40.12 53.3786 39.7467 53.2252 39.4C53.0719 39.0533 52.8519 38.7533 52.5652 38.5C52.2852 38.2467 51.9519 38.05 51.5652 37.91C51.1852 37.7633 50.7652 37.69 50.3052 37.69C49.8452 37.69 49.4219 37.7633 49.0352 37.91C48.6552 38.05 48.3252 38.2467 48.0452 38.5C47.7652 38.7467 47.5486 39.0433 47.3952 39.39C47.2486 39.7367 47.1752 40.1133 47.1752 40.52C47.1752 40.92 47.2486 41.2933 47.3952 41.64C47.5486 41.98 47.7652 42.2767 48.0452 42.53C48.3252 42.7833 48.6552 42.98 49.0352 43.12C49.4219 43.26 49.8452 43.33 50.3052 43.33ZM56.8376 44V37H57.5976L63.1076 43.09L63.0076 43.27C62.9876 43.1367 62.9709 42.9467 62.9576 42.7C62.9442 42.4533 62.9342 42.1833 62.9276 41.89C62.9209 41.5967 62.9142 41.3033 62.9076 41.01C62.9009 40.71 62.8942 40.4333 62.8876 40.18C62.8876 39.9267 62.8876 39.7233 62.8876 39.57V37H63.6676V44H62.8776L57.4176 38.02L57.4776 37.81C57.4909 37.9567 57.5009 38.1367 57.5076 38.35C57.5209 38.5567 57.5342 38.7767 57.5476 39.01C57.5609 39.2433 57.5709 39.4767 57.5776 39.71C57.5909 39.9367 57.6009 40.1467 57.6076 40.34C57.6142 40.5333 57.6176 40.6933 57.6176 40.82V44H56.8376ZM66.8083 44V37H71.9383V37.76H67.5883V43.24H71.9183V44H66.8083ZM67.2083 40.78V40.02H71.3783V40.78H67.2083ZM78.117 44.1C77.557 44.1 77.037 44.0133 76.557 43.84C76.0837 43.6667 75.6704 43.42 75.317 43.1C74.9704 42.7733 74.697 42.39 74.497 41.95C74.3037 41.5033 74.207 41.0167 74.207 40.49C74.207 39.9833 74.3037 39.5133 74.497 39.08C74.697 38.6467 74.9704 38.27 75.317 37.95C75.6704 37.63 76.0804 37.3833 76.547 37.21C77.0204 37.0367 77.527 36.95 78.067 36.95C78.4604 36.95 78.8404 37.0033 79.207 37.11C79.5804 37.2167 79.9237 37.36 80.237 37.54C80.5504 37.7133 80.807 37.9067 81.007 38.12L80.517 38.78C80.317 38.5667 80.087 38.3833 79.827 38.23C79.567 38.07 79.2837 37.9467 78.977 37.86C78.677 37.7667 78.3637 37.72 78.037 37.72C77.617 37.72 77.2237 37.7867 76.857 37.92C76.497 38.0533 76.177 38.2433 75.897 38.49C75.6237 38.7367 75.407 39.03 75.247 39.37C75.0937 39.71 75.017 40.0833 75.017 40.49C75.017 40.9233 75.097 41.3167 75.257 41.67C75.417 42.0167 75.6404 42.3133 75.927 42.56C76.2204 42.8067 76.5537 42.9967 76.927 43.13C77.307 43.2633 77.7204 43.33 78.167 43.33C78.507 43.33 78.8237 43.2867 79.117 43.2C79.417 43.1067 79.687 42.9867 79.927 42.84C80.167 42.6933 80.3737 42.5333 80.547 42.36L80.927 43.02C80.7537 43.2067 80.517 43.3833 80.217 43.55C79.917 43.71 79.587 43.8433 79.227 43.95C78.867 44.05 78.497 44.1 78.117 44.1ZM85.0584 44V37.76H82.6184V37H88.3684V37.76H85.8384V44H85.0584ZM89.2681 44L92.4181 37H93.3681L96.4881 44H95.6181L93.4081 39.08C93.3415 38.9067 93.2781 38.75 93.2181 38.61C93.1648 38.47 93.1115 38.34 93.0581 38.22C93.0048 38.1 92.9515 37.9767 92.8981 37.85C92.8515 37.7167 92.8015 37.57 92.7481 37.41L92.9781 37.4C92.9115 37.5867 92.8515 37.75 92.7981 37.89C92.7448 38.0233 92.6915 38.1533 92.6381 38.28C92.5915 38.4 92.5381 38.5267 92.4781 38.66C92.4181 38.7933 92.3515 38.95 92.2781 39.13L90.0781 44H89.2681ZM90.5781 42.13L90.8881 41.37H94.8181L95.0281 42.13H90.5781ZM98.7516 44V37H99.5116L105.022 43.09L104.922 43.27C104.902 43.1367 104.885 42.9467 104.872 42.7C104.858 42.4533 104.848 42.1833 104.842 41.89C104.835 41.5967 104.828 41.3033 104.822 41.01C104.815 40.71 104.808 40.4333 104.802 40.18C104.802 39.9267 104.802 39.7233 104.802 39.57V37H105.582V44H104.792L99.3316 38.02L99.3916 37.81C99.405 37.9567 99.415 38.1367 99.4216 38.35C99.435 38.5567 99.4483 38.7767 99.4616 39.01C99.475 39.2433 99.485 39.4767 99.4916 39.71C99.505 39.9367 99.515 40.1467 99.5216 40.34C99.5283 40.5333 99.5316 40.6933 99.5316 40.82V44H98.7516ZM108.722 44V37H111.872C112.439 37 112.949 37.09 113.402 37.27C113.856 37.45 114.242 37.6967 114.562 38.01C114.882 38.3233 115.129 38.6933 115.302 39.12C115.476 39.54 115.562 40 115.562 40.5C115.562 40.9933 115.476 41.4567 115.302 41.89C115.129 42.3167 114.882 42.6867 114.562 43C114.242 43.3133 113.856 43.56 113.402 43.74C112.949 43.9133 112.439 44 111.872 44H108.722ZM109.502 43.38L109.412 43.24H111.822C112.282 43.24 112.692 43.1733 113.052 43.04C113.412 42.9 113.716 42.7067 113.962 42.46C114.209 42.2133 114.399 41.9267 114.532 41.6C114.666 41.2667 114.732 40.9 114.732 40.5C114.732 40.1 114.666 39.7367 114.532 39.41C114.399 39.0767 114.209 38.7867 113.962 38.54C113.716 38.2933 113.412 38.1033 113.052 37.97C112.692 37.83 112.282 37.76 111.822 37.76H109.382L109.502 37.64V43.38ZM121.506 44.1C120.933 44.1 120.406 44.01 119.926 43.83C119.446 43.6433 119.03 43.39 118.676 43.07C118.323 42.75 118.05 42.3733 117.856 41.94C117.663 41.5 117.566 41.0267 117.566 40.52C117.566 40.0067 117.663 39.5333 117.856 39.1C118.05 38.6667 118.323 38.2867 118.676 37.96C119.03 37.6333 119.446 37.38 119.926 37.2C120.406 37.02 120.933 36.93 121.506 36.93C122.086 36.93 122.613 37.02 123.086 37.2C123.566 37.3733 123.983 37.6233 124.336 37.95C124.696 38.2767 124.973 38.66 125.166 39.1C125.366 39.5333 125.466 40.0067 125.466 40.52C125.466 41.0267 125.366 41.5 125.166 41.94C124.973 42.3733 124.696 42.7533 124.336 43.08C123.983 43.4067 123.566 43.66 123.086 43.84C122.613 44.0133 122.086 44.1 121.506 44.1ZM121.506 43.33C121.966 43.33 122.386 43.26 122.766 43.12C123.153 42.98 123.486 42.7833 123.766 42.53C124.053 42.27 124.273 41.97 124.426 41.63C124.58 41.29 124.656 40.92 124.656 40.52C124.656 40.12 124.58 39.7467 124.426 39.4C124.273 39.0533 124.053 38.7533 123.766 38.5C123.486 38.2467 123.153 38.05 122.766 37.91C122.386 37.7633 121.966 37.69 121.506 37.69C121.046 37.69 120.623 37.7633 120.236 37.91C119.856 38.05 119.526 38.2467 119.246 38.5C118.966 38.7467 118.75 39.0433 118.596 39.39C118.45 39.7367 118.376 40.1133 118.376 40.52C118.376 40.92 118.45 41.2933 118.596 41.64C118.75 41.98 118.966 42.2767 119.246 42.53C119.526 42.7833 119.856 42.98 120.236 43.12C120.623 43.26 121.046 43.33 121.506 43.33ZM132.15 44V37H137.28V37.76H132.93V43.24H137.26V44H132.15ZM132.55 40.78V40.02H136.72V40.78H132.55ZM140.119 44V37H140.889L143.999 41.28H143.679L146.819 37H147.559V44H146.779V40.76C146.772 40.18 146.779 39.65 146.799 39.17C146.819 38.6833 146.859 38.1967 146.919 37.71L147.039 37.99L144.089 41.94H143.549L140.639 38.01L140.759 37.72C140.812 38.18 140.849 38.65 140.869 39.13C140.895 39.61 140.909 40.1533 140.909 40.76L140.899 44H140.119ZM154.065 44.1C153.492 44.1 152.965 44.01 152.485 43.83C152.005 43.6433 151.588 43.39 151.235 43.07C150.882 42.75 150.608 42.3733 150.415 41.94C150.222 41.5 150.125 41.0267 150.125 40.52C150.125 40.0067 150.222 39.5333 150.415 39.1C150.608 38.6667 150.882 38.2867 151.235 37.96C151.588 37.6333 152.005 37.38 152.485 37.2C152.965 37.02 153.492 36.93 154.065 36.93C154.645 36.93 155.172 37.02 155.645 37.2C156.125 37.3733 156.542 37.6233 156.895 37.95C157.255 38.2767 157.532 38.66 157.725 39.1C157.925 39.5333 158.025 40.0067 158.025 40.52C158.025 41.0267 157.925 41.5 157.725 41.94C157.532 42.3733 157.255 42.7533 156.895 43.08C156.542 43.4067 156.125 43.66 155.645 43.84C155.172 44.0133 154.645 44.1 154.065 44.1ZM154.065 43.33C154.525 43.33 154.945 43.26 155.325 43.12C155.712 42.98 156.045 42.7833 156.325 42.53C156.612 42.27 156.832 41.97 156.985 41.63C157.138 41.29 157.215 40.92 157.215 40.52C157.215 40.12 157.138 39.7467 156.985 39.4C156.832 39.0533 156.612 38.7533 156.325 38.5C156.045 38.2467 155.712 38.05 155.325 37.91C154.945 37.7633 154.525 37.69 154.065 37.69C153.605 37.69 153.182 37.7633 152.795 37.91C152.415 38.05 152.085 38.2467 151.805 38.5C151.525 38.7467 151.308 39.0433 151.155 39.39C151.008 39.7367 150.935 40.1133 150.935 40.52C150.935 40.92 151.008 41.2933 151.155 41.64C151.308 41.98 151.525 42.2767 151.805 42.53C152.085 42.7833 152.415 42.98 152.795 43.12C153.182 43.26 153.605 43.33 154.065 43.33ZM163.937 44.1C163.377 44.1 162.857 44.0133 162.377 43.84C161.904 43.6667 161.491 43.42 161.137 43.1C160.791 42.7733 160.517 42.39 160.317 41.95C160.124 41.5033 160.027 41.0167 160.027 40.49C160.027 39.9833 160.124 39.5133 160.317 39.08C160.517 38.6467 160.791 38.27 161.137 37.95C161.491 37.63 161.901 37.3833 162.367 37.21C162.841 37.0367 163.347 36.95 163.887 36.95C164.281 36.95 164.661 37.0033 165.027 37.11C165.401 37.2167 165.744 37.36 166.057 37.54C166.371 37.7133 166.627 37.9067 166.827 38.12L166.337 38.78C166.137 38.5667 165.907 38.3833 165.647 38.23C165.387 38.07 165.104 37.9467 164.797 37.86C164.497 37.7667 164.184 37.72 163.857 37.72C163.437 37.72 163.044 37.7867 162.677 37.92C162.317 38.0533 161.997 38.2433 161.717 38.49C161.444 38.7367 161.227 39.03 161.067 39.37C160.914 39.71 160.837 40.0833 160.837 40.49C160.837 40.9233 160.917 41.3167 161.077 41.67C161.237 42.0167 161.461 42.3133 161.747 42.56C162.041 42.8067 162.374 42.9967 162.747 43.13C163.127 43.2633 163.541 43.33 163.987 43.33C164.327 43.33 164.644 43.2867 164.937 43.2C165.237 43.1067 165.507 42.9867 165.747 42.84C165.987 42.6933 166.194 42.5333 166.367 42.36L166.747 43.02C166.574 43.2067 166.337 43.3833 166.037 43.55C165.737 43.71 165.407 43.8433 165.047 43.95C164.687 44.05 164.317 44.1 163.937 44.1ZM169.179 44V43.23H170.749V37.77H169.179V37H173.109V37.77H171.529V43.23H173.109V44H169.179ZM179.358 44.1C178.785 44.1 178.258 44.01 177.778 43.83C177.298 43.6433 176.881 43.39 176.528 43.07C176.175 42.75 175.901 42.3733 175.708 41.94C175.515 41.5 175.418 41.0267 175.418 40.52C175.418 40.0067 175.515 39.5333 175.708 39.1C175.901 38.6667 176.175 38.2867 176.528 37.96C176.881 37.6333 177.298 37.38 177.778 37.2C178.258 37.02 178.785 36.93 179.358 36.93C179.938 36.93 180.465 37.02 180.938 37.2C181.418 37.3733 181.835 37.6233 182.188 37.95C182.548 38.2767 182.825 38.66 183.018 39.1C183.218 39.5333 183.318 40.0067 183.318 40.52C183.318 41.0267 183.218 41.5 183.018 41.94C182.825 42.3733 182.548 42.7533 182.188 43.08C181.835 43.4067 181.418 43.66 180.938 43.84C180.465 44.0133 179.938 44.1 179.358 44.1ZM179.358 43.33C179.818 43.33 180.238 43.26 180.618 43.12C181.005 42.98 181.338 42.7833 181.618 42.53C181.905 42.27 182.125 41.97 182.278 41.63C182.431 41.29 182.508 40.92 182.508 40.52C182.508 40.12 182.431 39.7467 182.278 39.4C182.125 39.0533 181.905 38.7533 181.618 38.5C181.338 38.2467 181.005 38.05 180.618 37.91C180.238 37.7633 179.818 37.69 179.358 37.69C178.898 37.69 178.475 37.7633 178.088 37.91C177.708 38.05 177.378 38.2467 177.098 38.5C176.818 38.7467 176.601 39.0433 176.448 39.39C176.301 39.7367 176.228 40.1133 176.228 40.52C176.228 40.92 176.301 41.2933 176.448 41.64C176.601 41.98 176.818 42.2767 177.098 42.53C177.378 42.7833 177.708 42.98 178.088 43.12C178.475 43.26 178.898 43.33 179.358 43.33ZM185.89 44V37H186.65L192.16 43.09L192.06 43.27C192.04 43.1367 192.024 42.9467 192.01 42.7C191.997 42.4533 191.987 42.1833 191.98 41.89C191.974 41.5967 191.967 41.3033 191.96 41.01C191.954 40.71 191.947 40.4333 191.94 40.18C191.94 39.9267 191.94 39.7233 191.94 39.57V37H192.72V44H191.93L186.47 38.02L186.53 37.81C186.544 37.9567 186.554 38.1367 186.56 38.35C186.574 38.5567 186.587 38.7767 186.6 39.01C186.614 39.2433 186.624 39.4767 186.63 39.71C186.644 39.9367 186.654 40.1467 186.66 40.34C186.667 40.5333 186.67 40.6933 186.67 40.82V44H185.89ZM195.861 44V37H200.991V37.76H196.641V43.24H200.971V44H195.861ZM196.261 40.78V40.02H200.431V40.78H196.261ZM206.36 44.1C205.933 44.1 205.533 44.05 205.16 43.95C204.786 43.85 204.443 43.7033 204.13 43.51C203.816 43.31 203.533 43.06 203.28 42.76L203.78 42.13C204.16 42.57 204.563 42.8867 204.99 43.08C205.416 43.2733 205.883 43.37 206.39 43.37C206.783 43.37 207.136 43.32 207.45 43.22C207.77 43.1133 208.023 42.9633 208.21 42.77C208.403 42.57 208.5 42.3367 208.5 42.07C208.5 41.8767 208.45 41.72 208.35 41.6C208.256 41.4733 208.13 41.37 207.97 41.29C207.816 41.2033 207.64 41.1333 207.44 41.08C207.246 41.0267 207.046 40.9833 206.84 40.95C206.64 40.91 206.45 40.8733 206.27 40.84C205.89 40.7733 205.536 40.6933 205.21 40.6C204.89 40.5067 204.61 40.39 204.37 40.25C204.13 40.1033 203.943 39.92 203.81 39.7C203.683 39.48 203.62 39.2133 203.62 38.9C203.62 38.6 203.686 38.3267 203.82 38.08C203.96 37.8333 204.153 37.6233 204.4 37.45C204.653 37.2767 204.946 37.1467 205.28 37.06C205.613 36.9733 205.973 36.93 206.36 36.93C206.78 36.93 207.16 36.98 207.5 37.08C207.84 37.1733 208.143 37.3133 208.41 37.5C208.676 37.68 208.906 37.9033 209.1 38.17L208.57 38.74C208.39 38.5067 208.186 38.31 207.96 38.15C207.733 37.99 207.483 37.8667 207.21 37.78C206.943 37.6933 206.656 37.65 206.35 37.65C205.983 37.65 205.656 37.7 205.37 37.8C205.09 37.9 204.863 38.0367 204.69 38.21C204.523 38.3833 204.44 38.59 204.44 38.83C204.44 39.0367 204.49 39.21 204.59 39.35C204.696 39.49 204.846 39.6067 205.04 39.7C205.233 39.7867 205.46 39.8633 205.72 39.93C205.98 39.99 206.273 40.0433 206.6 40.09C206.946 40.15 207.283 40.22 207.61 40.3C207.936 40.38 208.23 40.49 208.49 40.63C208.75 40.7633 208.953 40.94 209.1 41.16C209.246 41.3733 209.32 41.6467 209.32 41.98C209.32 42.4 209.196 42.77 208.95 43.09C208.71 43.41 208.366 43.66 207.92 43.84C207.48 44.0133 206.96 44.1 206.36 44.1Z" fill="white"/>
</svg>
