<svg width="265" height="56" viewBox="0 0 265 56" fill="none" xmlns="http://www.w3.org/2000/svg">
<path d="M16.72 24.4039L9.44 10.8839H15.248L19.104 18.9319L22.976 10.8839H28.752L21.504 24.4039V32.0039H16.72V24.4039ZM35.282 32.3879C33.842 32.3879 32.562 32.0946 31.442 31.5079C30.3327 30.9106 29.458 30.0946 28.818 29.0599C28.1887 28.0146 27.874 26.8199 27.874 25.4759C27.874 24.1319 28.1887 22.9372 28.818 21.8919C29.458 20.8359 30.3327 20.0039 31.442 19.3959C32.562 18.7879 33.842 18.4839 35.282 18.4839C36.722 18.4839 37.9913 18.7879 39.09 19.3959C40.1887 20.0039 41.0473 20.8359 41.666 21.8919C42.2847 22.9372 42.594 24.1319 42.594 25.4759C42.594 26.8199 42.2847 28.0146 41.666 29.0599C41.0473 30.0946 40.1887 30.9106 39.09 31.5079C37.9913 32.0946 36.722 32.3879 35.282 32.3879ZM35.282 28.3879C35.8367 28.3879 36.3167 28.2652 36.722 28.0199C37.1273 27.7746 37.442 27.4279 37.666 26.9799C37.89 26.5319 38.002 26.0252 38.002 25.4599C38.002 24.8839 37.89 24.3719 37.666 23.9239C37.442 23.4759 37.1273 23.1239 36.722 22.8679C36.3167 22.6119 35.8367 22.4839 35.282 22.4839C34.7273 22.4839 34.242 22.6119 33.826 22.8679C33.4207 23.1239 33.1007 23.4759 32.866 23.9239C32.642 24.3719 32.53 24.8839 32.53 25.4599C32.53 26.0252 32.642 26.5319 32.866 26.9799C33.1007 27.4279 33.4207 27.7746 33.826 28.0199C34.242 28.2652 34.7273 28.3879 35.282 28.3879ZM49.7333 24.9479C49.7333 25.9932 49.9306 26.8306 50.3253 27.4599C50.7199 28.0786 51.3813 28.3879 52.3093 28.3879C53.2586 28.3879 53.9253 28.0786 54.3093 27.4599C54.7039 26.8306 54.9013 25.9932 54.9013 24.9479V18.8679H59.7013V25.4599C59.7013 26.8679 59.4079 28.0946 58.8213 29.1399C58.2453 30.1746 57.4079 30.9746 56.3093 31.5399C55.2106 32.1052 53.8773 32.3879 52.3093 32.3879C50.7519 32.3879 49.4239 32.1052 48.3253 31.5399C47.2266 30.9746 46.3893 30.1746 45.8133 29.1399C45.2373 28.0946 44.9493 26.8679 44.9493 25.4599V18.8679H49.7333V24.9479ZM81.3173 32.0039V29.8759C81.2213 30.0892 80.9759 30.3986 80.5813 30.8039C80.1973 31.2092 79.6853 31.5772 79.0453 31.9079C78.4053 32.2279 77.6586 32.3879 76.8053 32.3879C75.5253 32.3879 74.4053 32.0786 73.4453 31.4599C72.4853 30.8306 71.7386 29.9932 71.2053 28.9479C70.6719 27.8919 70.4053 26.7239 70.4053 25.4439C70.4053 24.1639 70.6719 23.0012 71.2053 21.9559C71.7386 20.8999 72.4853 20.0572 73.4453 19.4279C74.4053 18.7986 75.5253 18.4839 76.8053 18.4839C77.6266 18.4839 78.3466 18.6172 78.9653 18.8839C79.5839 19.1399 80.0853 19.4492 80.4693 19.8119C80.8533 20.1639 81.1199 20.4892 81.2693 20.7879V18.8679H86.1013V32.0039H81.3173ZM75.1733 25.4439C75.1733 26.0412 75.3119 26.5799 75.5893 27.0599C75.8666 27.5292 76.2346 27.8972 76.6933 28.1639C77.1626 28.4306 77.6799 28.5639 78.2453 28.5639C78.8319 28.5639 79.3493 28.4306 79.7973 28.1639C80.2453 27.8972 80.5973 27.5292 80.8533 27.0599C81.1199 26.5799 81.2533 26.0412 81.2533 25.4439C81.2533 24.8466 81.1199 24.3132 80.8533 23.8439C80.5973 23.3639 80.2453 22.9906 79.7973 22.7239C79.3493 22.4466 78.8319 22.3079 78.2453 22.3079C77.6799 22.3079 77.1626 22.4466 76.6933 22.7239C76.2346 22.9906 75.8666 23.3639 75.5893 23.8439C75.3119 24.3132 75.1733 24.8466 75.1733 25.4439ZM93.6358 32.0039H88.7718V18.8679H93.6358V20.8999H93.5558C93.6411 20.6546 93.8491 20.3452 94.1798 19.9719C94.5104 19.5879 94.9744 19.2466 95.5718 18.9479C96.1691 18.6386 96.8998 18.4839 97.7638 18.4839C98.3718 18.4839 98.9318 18.5799 99.4438 18.7719C99.9558 18.9532 100.329 19.1292 100.564 19.2999L98.6758 23.2519C98.5264 23.0706 98.2598 22.8839 97.8758 22.6919C97.5024 22.4892 97.0331 22.3879 96.4678 22.3879C95.8171 22.3879 95.2784 22.5532 94.8518 22.8839C94.4358 23.2146 94.1264 23.6146 93.9238 24.0839C93.7318 24.5532 93.6358 24.9959 93.6358 25.4119V32.0039ZM105.404 26.4679C105.436 26.9372 105.585 27.3532 105.852 27.7159C106.118 28.0786 106.486 28.3666 106.956 28.5799C107.436 28.7826 108.001 28.8839 108.652 28.8839C109.27 28.8839 109.825 28.8199 110.316 28.6919C110.817 28.5639 111.249 28.4039 111.612 28.2119C111.985 28.0199 112.273 27.8226 112.476 27.6199L114.364 30.6279C114.097 30.9159 113.718 31.1986 113.228 31.4759C112.748 31.7426 112.113 31.9612 111.324 32.1319C110.534 32.3026 109.537 32.3879 108.332 32.3879C106.881 32.3879 105.59 32.1159 104.46 31.5719C103.329 31.0279 102.438 30.2279 101.788 29.1719C101.137 28.1159 100.812 26.8252 100.812 25.2999C100.812 24.0199 101.089 22.8679 101.644 21.8439C102.209 20.8092 103.025 19.9932 104.092 19.3959C105.158 18.7879 106.444 18.4839 107.948 18.4839C109.377 18.4839 110.614 18.7452 111.66 19.2679C112.716 19.7906 113.526 20.5692 114.092 21.6039C114.668 22.6279 114.956 23.9079 114.956 25.4439C114.956 25.5292 114.95 25.6999 114.94 25.9559C114.94 26.2119 114.929 26.3826 114.908 26.4679H105.404ZM110.38 23.9239C110.369 23.5826 110.278 23.2466 110.108 22.9159C109.937 22.5746 109.681 22.2972 109.34 22.0839C108.998 21.8599 108.561 21.7479 108.028 21.7479C107.494 21.7479 107.041 21.8546 106.668 22.0679C106.305 22.2706 106.028 22.5372 105.836 22.8679C105.644 23.1986 105.537 23.5506 105.516 23.9239H110.38ZM134.978 18.4839C135.895 18.4839 136.791 18.6706 137.666 19.0439C138.54 19.4172 139.26 20.0092 139.826 20.8199C140.391 21.6199 140.674 22.6759 140.674 23.9879V32.0039H135.794V24.7879C135.794 23.8492 135.57 23.1452 135.122 22.6759C134.674 22.1959 134.087 21.9559 133.362 21.9559C132.882 21.9559 132.428 22.0839 132.002 22.3399C131.586 22.5852 131.244 22.9372 130.978 23.3959C130.722 23.8439 130.594 24.3612 130.594 24.9479V32.0039H125.73V18.8679H130.594V20.8039C130.722 20.4519 130.988 20.0999 131.394 19.7479C131.81 19.3852 132.327 19.0866 132.946 18.8519C133.575 18.6066 134.252 18.4839 134.978 18.4839ZM150.188 32.3879C148.748 32.3879 147.468 32.0946 146.348 31.5079C145.239 30.9106 144.364 30.0946 143.724 29.0599C143.095 28.0146 142.78 26.8199 142.78 25.4759C142.78 24.1319 143.095 22.9372 143.724 21.8919C144.364 20.8359 145.239 20.0039 146.348 19.3959C147.468 18.7879 148.748 18.4839 150.188 18.4839C151.628 18.4839 152.898 18.7879 153.996 19.3959C155.095 20.0039 155.954 20.8359 156.572 21.8919C157.191 22.9372 157.5 24.1319 157.5 25.4759C157.5 26.8199 157.191 28.0146 156.572 29.0599C155.954 30.0946 155.095 30.9106 153.996 31.5079C152.898 32.0946 151.628 32.3879 150.188 32.3879ZM150.188 28.3879C150.743 28.3879 151.223 28.2652 151.628 28.0199C152.034 27.7746 152.348 27.4279 152.572 26.9799C152.796 26.5319 152.908 26.0252 152.908 25.4599C152.908 24.8839 152.796 24.3719 152.572 23.9239C152.348 23.4759 152.034 23.1239 151.628 22.8679C151.223 22.6119 150.743 22.4839 150.188 22.4839C149.634 22.4839 149.148 22.6119 148.732 22.8679C148.327 23.1239 148.007 23.4759 147.772 23.9239C147.548 24.3719 147.436 24.8839 147.436 25.4599C147.436 26.0252 147.548 26.5319 147.772 26.9799C148.007 27.4279 148.327 27.7746 148.732 28.0199C149.148 28.2652 149.634 28.3879 150.188 28.3879ZM158.912 18.8679H161.152V13.4759H165.968V18.8679H168.912V22.8679H165.968V26.5319C165.968 27.0759 166.048 27.5186 166.208 27.8599C166.368 28.1906 166.661 28.3559 167.088 28.3559C167.376 28.3559 167.621 28.2919 167.824 28.1639C168.026 28.0359 168.149 27.9506 168.192 27.9079L169.856 31.3639C169.781 31.4279 169.546 31.5452 169.152 31.7159C168.768 31.8866 168.277 32.0412 167.68 32.1799C167.082 32.3186 166.416 32.3879 165.68 32.3879C164.368 32.3879 163.285 32.0199 162.432 31.2839C161.578 30.5372 161.152 29.3906 161.152 27.8439V22.8679H158.912V18.8679ZM190.317 32.0039V29.8759C190.221 30.0892 189.976 30.3986 189.581 30.8039C189.197 31.2092 188.685 31.5772 188.045 31.9079C187.405 32.2279 186.659 32.3879 185.805 32.3879C184.525 32.3879 183.405 32.0786 182.445 31.4599C181.485 30.8306 180.739 29.9932 180.205 28.9479C179.672 27.8919 179.405 26.7239 179.405 25.4439C179.405 24.1639 179.672 23.0012 180.205 21.9559C180.739 20.8999 181.485 20.0572 182.445 19.4279C183.405 18.7986 184.525 18.4839 185.805 18.4839C186.627 18.4839 187.347 18.6172 187.965 18.8839C188.584 19.1399 189.085 19.4492 189.469 19.8119C189.853 20.1639 190.12 20.4892 190.269 20.7879V18.8679H195.101V32.0039H190.317ZM184.173 25.4439C184.173 26.0412 184.312 26.5799 184.589 27.0599C184.867 27.5292 185.235 27.8972 185.693 28.1639C186.163 28.4306 186.68 28.5639 187.245 28.5639C187.832 28.5639 188.349 28.4306 188.797 28.1639C189.245 27.8972 189.597 27.5292 189.853 27.0599C190.12 26.5799 190.253 26.0412 190.253 25.4439C190.253 24.8466 190.12 24.3132 189.853 23.8439C189.597 23.3639 189.245 22.9906 188.797 22.7239C188.349 22.4466 187.832 22.3079 187.245 22.3079C186.68 22.3079 186.163 22.4466 185.693 22.7239C185.235 22.9906 184.867 23.3639 184.589 23.8439C184.312 24.3132 184.173 24.8466 184.173 25.4439ZM203.052 32.0039H198.172V9.98791H203.052V32.0039ZM212.876 32.3879C211.436 32.3879 210.156 32.0946 209.036 31.5079C207.926 30.9106 207.052 30.0946 206.412 29.0599C205.782 28.0146 205.468 26.8199 205.468 25.4759C205.468 24.1319 205.782 22.9372 206.412 21.8919C207.052 20.8359 207.926 20.0039 209.036 19.3959C210.156 18.7879 211.436 18.4839 212.876 18.4839C214.316 18.4839 215.585 18.7879 216.684 19.3959C217.782 20.0039 218.641 20.8359 219.26 21.8919C219.878 22.9372 220.188 24.1319 220.188 25.4759C220.188 26.8199 219.878 28.0146 219.26 29.0599C218.641 30.0946 217.782 30.9106 216.684 31.5079C215.585 32.0946 214.316 32.3879 212.876 32.3879ZM212.876 28.3879C213.43 28.3879 213.91 28.2652 214.316 28.0199C214.721 27.7746 215.036 27.4279 215.26 26.9799C215.484 26.5319 215.596 26.0252 215.596 25.4599C215.596 24.8839 215.484 24.3719 215.26 23.9239C215.036 23.4759 214.721 23.1239 214.316 22.8679C213.91 22.6119 213.43 22.4839 212.876 22.4839C212.321 22.4839 211.836 22.6119 211.42 22.8679C211.014 23.1239 210.694 23.4759 210.46 23.9239C210.236 24.3719 210.124 24.8839 210.124 25.4599C210.124 26.0252 210.236 26.5319 210.46 26.9799C210.694 27.4279 211.014 27.7746 211.42 28.0199C211.836 28.2652 212.321 28.3879 212.876 28.3879ZM231.759 18.4839C232.676 18.4839 233.572 18.6706 234.447 19.0439C235.322 19.4172 236.042 20.0092 236.607 20.8199C237.172 21.6199 237.455 22.6759 237.455 23.9879V32.0039H232.575V24.7879C232.575 23.8492 232.351 23.1452 231.903 22.6759C231.455 22.1959 230.868 21.9559 230.143 21.9559C229.663 21.9559 229.21 22.0839 228.783 22.3399C228.367 22.5852 228.026 22.9372 227.759 23.3959C227.503 23.8439 227.375 24.3612 227.375 24.9479V32.0039H222.511V18.8679H227.375V20.8039C227.503 20.4519 227.77 20.0999 228.175 19.7479C228.591 19.3852 229.108 19.0866 229.727 18.8519C230.356 18.6066 231.034 18.4839 231.759 18.4839ZM244.154 26.4679C244.186 26.9372 244.335 27.3532 244.602 27.7159C244.868 28.0786 245.236 28.3666 245.706 28.5799C246.186 28.7826 246.751 28.8839 247.402 28.8839C248.02 28.8839 248.575 28.8199 249.066 28.6919C249.567 28.5639 249.999 28.4039 250.362 28.2119C250.735 28.0199 251.023 27.8226 251.226 27.6199L253.114 30.6279C252.847 30.9159 252.468 31.1986 251.978 31.4759C251.498 31.7426 250.863 31.9612 250.074 32.1319C249.284 32.3026 248.287 32.3879 247.082 32.3879C245.631 32.3879 244.34 32.1159 243.21 31.5719C242.079 31.0279 241.188 30.2279 240.538 29.1719C239.887 28.1159 239.562 26.8252 239.562 25.2999C239.562 24.0199 239.839 22.8679 240.394 21.8439C240.959 20.8092 241.775 19.9932 242.842 19.3959C243.908 18.7879 245.194 18.4839 246.698 18.4839C248.127 18.4839 249.364 18.7452 250.41 19.2679C251.466 19.7906 252.276 20.5692 252.842 21.6039C253.418 22.6279 253.706 23.9079 253.706 25.4439C253.706 25.5292 253.7 25.6999 253.69 25.9559C253.69 26.2119 253.679 26.3826 253.658 26.4679H244.154ZM249.13 23.9239C249.119 23.5826 249.028 23.2466 248.858 22.9159C248.687 22.5746 248.431 22.2972 248.09 22.0839C247.748 21.8599 247.311 21.7479 246.778 21.7479C246.244 21.7479 245.791 21.8546 245.418 22.0679C245.055 22.2706 244.778 22.5372 244.586 22.8679C244.394 23.1986 244.287 23.5506 244.266 23.9239H249.13Z" fill="white"/>
<path d="M50.5838 53.1039C50.0238 53.1039 49.5038 53.0172 49.0238 52.8439C48.5505 52.6706 48.1372 52.4239 47.7838 52.1039C47.4372 51.7772 47.1638 51.3939 46.9638 50.9539C46.7705 50.5072 46.6738 50.0206 46.6738 49.4939C46.6738 48.9872 46.7705 48.5172 46.9638 48.0839C47.1638 47.6506 47.4372 47.2739 47.7838 46.9539C48.1372 46.6339 48.5472 46.3872 49.0138 46.2139C49.4872 46.0406 49.9938 45.9539 50.5338 45.9539C50.9272 45.9539 51.3072 46.0072 51.6738 46.1139C52.0472 46.2206 52.3905 46.3639 52.7038 46.5439C53.0172 46.7172 53.2738 46.9106 53.4738 47.1239L52.9838 47.7839C52.7838 47.5706 52.5538 47.3872 52.2938 47.2339C52.0338 47.0739 51.7505 46.9506 51.4438 46.8639C51.1438 46.7706 50.8305 46.7239 50.5038 46.7239C50.0838 46.7239 49.6905 46.7906 49.3238 46.9239C48.9638 47.0572 48.6438 47.2472 48.3638 47.4939C48.0905 47.7406 47.8738 48.0339 47.7138 48.3739C47.5605 48.7139 47.4838 49.0872 47.4838 49.4939C47.4838 49.9272 47.5638 50.3206 47.7238 50.6739C47.8838 51.0206 48.1072 51.3172 48.3938 51.5639C48.6872 51.8106 49.0205 52.0006 49.3938 52.1339C49.7738 52.2672 50.1872 52.3339 50.6338 52.3339C50.9738 52.3339 51.2905 52.2906 51.5838 52.2039C51.8838 52.1106 52.1538 51.9906 52.3938 51.8439C52.6338 51.6972 52.8405 51.5372 53.0138 51.3639L53.3938 52.0239C53.2205 52.2106 52.9838 52.3872 52.6838 52.5539C52.3838 52.7139 52.0538 52.8472 51.6938 52.9539C51.3338 53.0539 50.9638 53.1039 50.5838 53.1039ZM59.3052 53.1039C58.7319 53.1039 58.2052 53.0139 57.7252 52.8339C57.2452 52.6472 56.8286 52.3939 56.4752 52.0739C56.1219 51.7539 55.8486 51.3772 55.6552 50.9439C55.4619 50.5039 55.3652 50.0306 55.3652 49.5239C55.3652 49.0106 55.4619 48.5372 55.6552 48.1039C55.8486 47.6706 56.1219 47.2906 56.4752 46.9639C56.8286 46.6372 57.2452 46.3839 57.7252 46.2039C58.2052 46.0239 58.7319 45.9339 59.3052 45.9339C59.8852 45.9339 60.4119 46.0239 60.8852 46.2039C61.3652 46.3772 61.7819 46.6272 62.1352 46.9539C62.4952 47.2806 62.7719 47.6639 62.9652 48.1039C63.1652 48.5372 63.2652 49.0106 63.2652 49.5239C63.2652 50.0306 63.1652 50.5039 62.9652 50.9439C62.7719 51.3772 62.4952 51.7572 62.1352 52.0839C61.7819 52.4106 61.3652 52.6639 60.8852 52.8439C60.4119 53.0172 59.8852 53.1039 59.3052 53.1039ZM59.3052 52.3339C59.7652 52.3339 60.1852 52.2639 60.5652 52.1239C60.9519 51.9839 61.2852 51.7872 61.5652 51.5339C61.8519 51.2739 62.0719 50.9739 62.2252 50.6339C62.3786 50.2939 62.4552 49.9239 62.4552 49.5239C62.4552 49.1239 62.3786 48.7506 62.2252 48.4039C62.0719 48.0572 61.8519 47.7572 61.5652 47.5039C61.2852 47.2506 60.9519 47.0539 60.5652 46.9139C60.1852 46.7672 59.7652 46.6939 59.3052 46.6939C58.8452 46.6939 58.4219 46.7672 58.0352 46.9139C57.6552 47.0539 57.3252 47.2506 57.0452 47.5039C56.7652 47.7506 56.5486 48.0472 56.3952 48.3939C56.2486 48.7406 56.1752 49.1172 56.1752 49.5239C56.1752 49.9239 56.2486 50.2972 56.3952 50.6439C56.5486 50.9839 56.7652 51.2806 57.0452 51.5339C57.3252 51.7872 57.6552 51.9839 58.0352 52.1239C58.4219 52.2639 58.8452 52.3339 59.3052 52.3339ZM65.8376 53.0039V46.0039H66.5976L72.1076 52.0939L72.0076 52.2739C71.9876 52.1406 71.9709 51.9506 71.9576 51.7039C71.9442 51.4572 71.9342 51.1872 71.9276 50.8939C71.9209 50.6006 71.9142 50.3072 71.9076 50.0139C71.9009 49.7139 71.8942 49.4372 71.8876 49.1839C71.8876 48.9306 71.8876 48.7272 71.8876 48.5739V46.0039H72.6676V53.0039H71.8776L66.4176 47.0239L66.4776 46.8139C66.4909 46.9606 66.5009 47.1406 66.5076 47.3539C66.5209 47.5606 66.5342 47.7806 66.5476 48.0139C66.5609 48.2472 66.5709 48.4806 66.5776 48.7139C66.5909 48.9406 66.6009 49.1506 66.6076 49.3439C66.6142 49.5372 66.6176 49.6972 66.6176 49.8239V53.0039H65.8376ZM75.8083 53.0039V46.0039H80.9383V46.7639H76.5883V52.2439H80.9183V53.0039H75.8083ZM76.2083 49.7839V49.0239H80.3783V49.7839H76.2083ZM87.117 53.1039C86.557 53.1039 86.037 53.0172 85.557 52.8439C85.0837 52.6706 84.6704 52.4239 84.317 52.1039C83.9704 51.7772 83.697 51.3939 83.497 50.9539C83.3037 50.5072 83.207 50.0206 83.207 49.4939C83.207 48.9872 83.3037 48.5172 83.497 48.0839C83.697 47.6506 83.9704 47.2739 84.317 46.9539C84.6704 46.6339 85.0804 46.3872 85.547 46.2139C86.0204 46.0406 86.527 45.9539 87.067 45.9539C87.4604 45.9539 87.8404 46.0072 88.207 46.1139C88.5804 46.2206 88.9237 46.3639 89.237 46.5439C89.5504 46.7172 89.807 46.9106 90.007 47.1239L89.517 47.7839C89.317 47.5706 89.087 47.3872 88.827 47.2339C88.567 47.0739 88.2837 46.9506 87.977 46.8639C87.677 46.7706 87.3637 46.7239 87.037 46.7239C86.617 46.7239 86.2237 46.7906 85.857 46.9239C85.497 47.0572 85.177 47.2472 84.897 47.4939C84.6237 47.7406 84.407 48.0339 84.247 48.3739C84.0937 48.7139 84.017 49.0872 84.017 49.4939C84.017 49.9272 84.097 50.3206 84.257 50.6739C84.417 51.0206 84.6404 51.3172 84.927 51.5639C85.2204 51.8106 85.5537 52.0006 85.927 52.1339C86.307 52.2672 86.7204 52.3339 87.167 52.3339C87.507 52.3339 87.8237 52.2906 88.117 52.2039C88.417 52.1106 88.687 51.9906 88.927 51.8439C89.167 51.6972 89.3737 51.5372 89.547 51.3639L89.927 52.0239C89.7537 52.2106 89.517 52.3872 89.217 52.5539C88.917 52.7139 88.587 52.8472 88.227 52.9539C87.867 53.0539 87.497 53.1039 87.117 53.1039ZM94.0584 53.0039V46.7639H91.6184V46.0039H97.3684V46.7639H94.8384V53.0039H94.0584ZM98.2681 53.0039L101.418 46.0039H102.368L105.488 53.0039H104.618L102.408 48.0839C102.341 47.9106 102.278 47.7539 102.218 47.6139C102.165 47.4739 102.111 47.3439 102.058 47.2239C102.005 47.1039 101.951 46.9806 101.898 46.8539C101.851 46.7206 101.801 46.5739 101.748 46.4139L101.978 46.4039C101.911 46.5906 101.851 46.7539 101.798 46.8939C101.745 47.0272 101.691 47.1572 101.638 47.2839C101.591 47.4039 101.538 47.5306 101.478 47.6639C101.418 47.7972 101.351 47.9539 101.278 48.1339L99.0781 53.0039H98.2681ZM99.5781 51.1339L99.8881 50.3739H103.818L104.028 51.1339H99.5781ZM107.752 53.0039V46.0039H108.512L114.022 52.0939L113.922 52.2739C113.902 52.1406 113.885 51.9506 113.872 51.7039C113.858 51.4572 113.848 51.1872 113.842 50.8939C113.835 50.6006 113.828 50.3072 113.822 50.0139C113.815 49.7139 113.808 49.4372 113.802 49.1839C113.802 48.9306 113.802 48.7272 113.802 48.5739V46.0039H114.582V53.0039H113.792L108.332 47.0239L108.392 46.8139C108.405 46.9606 108.415 47.1406 108.422 47.3539C108.435 47.5606 108.448 47.7806 108.462 48.0139C108.475 48.2472 108.485 48.4806 108.492 48.7139C108.505 48.9406 108.515 49.1506 108.522 49.3439C108.528 49.5372 108.532 49.6972 108.532 49.8239V53.0039H107.752ZM117.722 53.0039V46.0039H120.872C121.439 46.0039 121.949 46.0939 122.402 46.2739C122.856 46.4539 123.242 46.7006 123.562 47.0139C123.882 47.3272 124.129 47.6972 124.302 48.1239C124.476 48.5439 124.562 49.0039 124.562 49.5039C124.562 49.9972 124.476 50.4606 124.302 50.8939C124.129 51.3206 123.882 51.6906 123.562 52.0039C123.242 52.3172 122.856 52.5639 122.402 52.7439C121.949 52.9172 121.439 53.0039 120.872 53.0039H117.722ZM118.502 52.3839L118.412 52.2439H120.822C121.282 52.2439 121.692 52.1772 122.052 52.0439C122.412 51.9039 122.716 51.7106 122.962 51.4639C123.209 51.2172 123.399 50.9306 123.532 50.6039C123.666 50.2706 123.732 49.9039 123.732 49.5039C123.732 49.1039 123.666 48.7406 123.532 48.4139C123.399 48.0806 123.209 47.7906 122.962 47.5439C122.716 47.2972 122.412 47.1072 122.052 46.9739C121.692 46.8339 121.282 46.7639 120.822 46.7639H118.382L118.502 46.6439V52.3839ZM130.506 53.1039C129.933 53.1039 129.406 53.0139 128.926 52.8339C128.446 52.6472 128.03 52.3939 127.676 52.0739C127.323 51.7539 127.05 51.3772 126.856 50.9439C126.663 50.5039 126.566 50.0306 126.566 49.5239C126.566 49.0106 126.663 48.5372 126.856 48.1039C127.05 47.6706 127.323 47.2906 127.676 46.9639C128.03 46.6372 128.446 46.3839 128.926 46.2039C129.406 46.0239 129.933 45.9339 130.506 45.9339C131.086 45.9339 131.613 46.0239 132.086 46.2039C132.566 46.3772 132.983 46.6272 133.336 46.9539C133.696 47.2806 133.973 47.6639 134.166 48.1039C134.366 48.5372 134.466 49.0106 134.466 49.5239C134.466 50.0306 134.366 50.5039 134.166 50.9439C133.973 51.3772 133.696 51.7572 133.336 52.0839C132.983 52.4106 132.566 52.6639 132.086 52.8439C131.613 53.0172 131.086 53.1039 130.506 53.1039ZM130.506 52.3339C130.966 52.3339 131.386 52.2639 131.766 52.1239C132.153 51.9839 132.486 51.7872 132.766 51.5339C133.053 51.2739 133.273 50.9739 133.426 50.6339C133.58 50.2939 133.656 49.9239 133.656 49.5239C133.656 49.1239 133.58 48.7506 133.426 48.4039C133.273 48.0572 133.053 47.7572 132.766 47.5039C132.486 47.2506 132.153 47.0539 131.766 46.9139C131.386 46.7672 130.966 46.6939 130.506 46.6939C130.046 46.6939 129.623 46.7672 129.236 46.9139C128.856 47.0539 128.526 47.2506 128.246 47.5039C127.966 47.7506 127.75 48.0472 127.596 48.3939C127.45 48.7406 127.376 49.1172 127.376 49.5239C127.376 49.9239 127.45 50.2972 127.596 50.6439C127.75 50.9839 127.966 51.2806 128.246 51.5339C128.526 51.7872 128.856 51.9839 129.236 52.1239C129.623 52.2639 130.046 52.3339 130.506 52.3339ZM141.15 53.0039V46.0039H146.28V46.7639H141.93V52.2439H146.26V53.0039H141.15ZM141.55 49.7839V49.0239H145.72V49.7839H141.55ZM149.119 53.0039V46.0039H149.889L152.999 50.2839H152.679L155.819 46.0039H156.559V53.0039H155.779V49.7639C155.772 49.1839 155.779 48.6539 155.799 48.1739C155.819 47.6872 155.859 47.2006 155.919 46.7139L156.039 46.9939L153.089 50.9439H152.549L149.639 47.0139L149.759 46.7239C149.812 47.1839 149.849 47.6539 149.869 48.1339C149.895 48.6139 149.909 49.1572 149.909 49.7639L149.899 53.0039H149.119ZM163.065 53.1039C162.492 53.1039 161.965 53.0139 161.485 52.8339C161.005 52.6472 160.588 52.3939 160.235 52.0739C159.882 51.7539 159.608 51.3772 159.415 50.9439C159.222 50.5039 159.125 50.0306 159.125 49.5239C159.125 49.0106 159.222 48.5372 159.415 48.1039C159.608 47.6706 159.882 47.2906 160.235 46.9639C160.588 46.6372 161.005 46.3839 161.485 46.2039C161.965 46.0239 162.492 45.9339 163.065 45.9339C163.645 45.9339 164.172 46.0239 164.645 46.2039C165.125 46.3772 165.542 46.6272 165.895 46.9539C166.255 47.2806 166.532 47.6639 166.725 48.1039C166.925 48.5372 167.025 49.0106 167.025 49.5239C167.025 50.0306 166.925 50.5039 166.725 50.9439C166.532 51.3772 166.255 51.7572 165.895 52.0839C165.542 52.4106 165.125 52.6639 164.645 52.8439C164.172 53.0172 163.645 53.1039 163.065 53.1039ZM163.065 52.3339C163.525 52.3339 163.945 52.2639 164.325 52.1239C164.712 51.9839 165.045 51.7872 165.325 51.5339C165.612 51.2739 165.832 50.9739 165.985 50.6339C166.138 50.2939 166.215 49.9239 166.215 49.5239C166.215 49.1239 166.138 48.7506 165.985 48.4039C165.832 48.0572 165.612 47.7572 165.325 47.5039C165.045 47.2506 164.712 47.0539 164.325 46.9139C163.945 46.7672 163.525 46.6939 163.065 46.6939C162.605 46.6939 162.182 46.7672 161.795 46.9139C161.415 47.0539 161.085 47.2506 160.805 47.5039C160.525 47.7506 160.308 48.0472 160.155 48.3939C160.008 48.7406 159.935 49.1172 159.935 49.5239C159.935 49.9239 160.008 50.2972 160.155 50.6439C160.308 50.9839 160.525 51.2806 160.805 51.5339C161.085 51.7872 161.415 51.9839 161.795 52.1239C162.182 52.2639 162.605 52.3339 163.065 52.3339ZM172.937 53.1039C172.377 53.1039 171.857 53.0172 171.377 52.8439C170.904 52.6706 170.491 52.4239 170.137 52.1039C169.791 51.7772 169.517 51.3939 169.317 50.9539C169.124 50.5072 169.027 50.0206 169.027 49.4939C169.027 48.9872 169.124 48.5172 169.317 48.0839C169.517 47.6506 169.791 47.2739 170.137 46.9539C170.491 46.6339 170.901 46.3872 171.367 46.2139C171.841 46.0406 172.347 45.9539 172.887 45.9539C173.281 45.9539 173.661 46.0072 174.027 46.1139C174.401 46.2206 174.744 46.3639 175.057 46.5439C175.371 46.7172 175.627 46.9106 175.827 47.1239L175.337 47.7839C175.137 47.5706 174.907 47.3872 174.647 47.2339C174.387 47.0739 174.104 46.9506 173.797 46.8639C173.497 46.7706 173.184 46.7239 172.857 46.7239C172.437 46.7239 172.044 46.7906 171.677 46.9239C171.317 47.0572 170.997 47.2472 170.717 47.4939C170.444 47.7406 170.227 48.0339 170.067 48.3739C169.914 48.7139 169.837 49.0872 169.837 49.4939C169.837 49.9272 169.917 50.3206 170.077 50.6739C170.237 51.0206 170.461 51.3172 170.747 51.5639C171.041 51.8106 171.374 52.0006 171.747 52.1339C172.127 52.2672 172.541 52.3339 172.987 52.3339C173.327 52.3339 173.644 52.2906 173.937 52.2039C174.237 52.1106 174.507 51.9906 174.747 51.8439C174.987 51.6972 175.194 51.5372 175.367 51.3639L175.747 52.0239C175.574 52.2106 175.337 52.3872 175.037 52.5539C174.737 52.7139 174.407 52.8472 174.047 52.9539C173.687 53.0539 173.317 53.1039 172.937 53.1039ZM178.179 53.0039V52.2339H179.749V46.7739H178.179V46.0039H182.109V46.7739H180.529V52.2339H182.109V53.0039H178.179ZM188.358 53.1039C187.785 53.1039 187.258 53.0139 186.778 52.8339C186.298 52.6472 185.881 52.3939 185.528 52.0739C185.175 51.7539 184.901 51.3772 184.708 50.9439C184.515 50.5039 184.418 50.0306 184.418 49.5239C184.418 49.0106 184.515 48.5372 184.708 48.1039C184.901 47.6706 185.175 47.2906 185.528 46.9639C185.881 46.6372 186.298 46.3839 186.778 46.2039C187.258 46.0239 187.785 45.9339 188.358 45.9339C188.938 45.9339 189.465 46.0239 189.938 46.2039C190.418 46.3772 190.835 46.6272 191.188 46.9539C191.548 47.2806 191.825 47.6639 192.018 48.1039C192.218 48.5372 192.318 49.0106 192.318 49.5239C192.318 50.0306 192.218 50.5039 192.018 50.9439C191.825 51.3772 191.548 51.7572 191.188 52.0839C190.835 52.4106 190.418 52.6639 189.938 52.8439C189.465 53.0172 188.938 53.1039 188.358 53.1039ZM188.358 52.3339C188.818 52.3339 189.238 52.2639 189.618 52.1239C190.005 51.9839 190.338 51.7872 190.618 51.5339C190.905 51.2739 191.125 50.9739 191.278 50.6339C191.431 50.2939 191.508 49.9239 191.508 49.5239C191.508 49.1239 191.431 48.7506 191.278 48.4039C191.125 48.0572 190.905 47.7572 190.618 47.5039C190.338 47.2506 190.005 47.0539 189.618 46.9139C189.238 46.7672 188.818 46.6939 188.358 46.6939C187.898 46.6939 187.475 46.7672 187.088 46.9139C186.708 47.0539 186.378 47.2506 186.098 47.5039C185.818 47.7506 185.601 48.0472 185.448 48.3939C185.301 48.7406 185.228 49.1172 185.228 49.5239C185.228 49.9239 185.301 50.2972 185.448 50.6439C185.601 50.9839 185.818 51.2806 186.098 51.5339C186.378 51.7872 186.708 51.9839 187.088 52.1239C187.475 52.2639 187.898 52.3339 188.358 52.3339ZM194.89 53.0039V46.0039H195.65L201.16 52.0939L201.06 52.2739C201.04 52.1406 201.024 51.9506 201.01 51.7039C200.997 51.4572 200.987 51.1872 200.98 50.8939C200.974 50.6006 200.967 50.3072 200.96 50.0139C200.954 49.7139 200.947 49.4372 200.94 49.1839C200.94 48.9306 200.94 48.7272 200.94 48.5739V46.0039H201.72V53.0039H200.93L195.47 47.0239L195.53 46.8139C195.544 46.9606 195.554 47.1406 195.56 47.3539C195.574 47.5606 195.587 47.7806 195.6 48.0139C195.614 48.2472 195.624 48.4806 195.63 48.7139C195.644 48.9406 195.654 49.1506 195.66 49.3439C195.667 49.5372 195.67 49.6972 195.67 49.8239V53.0039H194.89ZM204.861 53.0039V46.0039H209.991V46.7639H205.641V52.2439H209.971V53.0039H204.861ZM205.261 49.7839V49.0239H209.431V49.7839H205.261ZM215.36 53.1039C214.933 53.1039 214.533 53.0539 214.16 52.9539C213.786 52.8539 213.443 52.7072 213.13 52.5139C212.816 52.3139 212.533 52.0639 212.28 51.7639L212.78 51.1339C213.16 51.5739 213.563 51.8906 213.99 52.0839C214.416 52.2772 214.883 52.3739 215.39 52.3739C215.783 52.3739 216.136 52.3239 216.45 52.2239C216.77 52.1172 217.023 51.9672 217.21 51.7739C217.403 51.5739 217.5 51.3406 217.5 51.0739C217.5 50.8806 217.45 50.7239 217.35 50.6039C217.256 50.4772 217.13 50.3739 216.97 50.2939C216.816 50.2072 216.64 50.1372 216.44 50.0839C216.246 50.0306 216.046 49.9872 215.84 49.9539C215.64 49.9139 215.45 49.8772 215.27 49.8439C214.89 49.7772 214.536 49.6972 214.21 49.6039C213.89 49.5106 213.61 49.3939 213.37 49.2539C213.13 49.1072 212.943 48.9239 212.81 48.7039C212.683 48.4839 212.62 48.2172 212.62 47.9039C212.62 47.6039 212.686 47.3306 212.82 47.0839C212.96 46.8372 213.153 46.6272 213.4 46.4539C213.653 46.2806 213.946 46.1506 214.28 46.0639C214.613 45.9772 214.973 45.9339 215.36 45.9339C215.78 45.9339 216.16 45.9839 216.5 46.0839C216.84 46.1772 217.143 46.3172 217.41 46.5039C217.676 46.6839 217.906 46.9072 218.1 47.1739L217.57 47.7439C217.39 47.5106 217.186 47.3139 216.96 47.1539C216.733 46.9939 216.483 46.8706 216.21 46.7839C215.943 46.6972 215.656 46.6539 215.35 46.6539C214.983 46.6539 214.656 46.7039 214.37 46.8039C214.09 46.9039 213.863 47.0406 213.69 47.2139C213.523 47.3872 213.44 47.5939 213.44 47.8339C213.44 48.0406 213.49 48.2139 213.59 48.3539C213.696 48.4939 213.846 48.6106 214.04 48.7039C214.233 48.7906 214.46 48.8672 214.72 48.9339C214.98 48.9939 215.273 49.0472 215.6 49.0939C215.946 49.1539 216.283 49.2239 216.61 49.3039C216.936 49.3839 217.23 49.4939 217.49 49.6339C217.75 49.7672 217.953 49.9439 218.1 50.1639C218.246 50.3772 218.32 50.6506 218.32 50.9839C218.32 51.4039 218.196 51.7739 217.95 52.0939C217.71 52.4139 217.366 52.6639 216.92 52.8439C216.48 53.0172 215.96 53.1039 215.36 53.1039Z" fill="white"/>
</svg>
