<?xml version="1.0" encoding="UTF-8"?>
<!-- Generator: visioncortex VTracer 0.6.4 -->
<svg version="1.1" xmlns="http://www.w3.org/2000/svg" width="797" height="734">
<path d="M0 0 C23.715403 20.933404 35.282879 48.076841 37.335938 79.344727 C39.865629 132.309463 17.969828 181.44082 -9.476562 225.344727 C-10.233032 226.58745 -10.98819 227.830971 -11.742188 229.075195 C-20.595039 243.596406 -30.469097 257.374392 -41.476562 270.344727 C-42.347071 271.3884 -43.216826 272.432702 -44.085938 273.477539 C-53.261431 284.472411 -62.939025 294.90226 -73.024017 305.067413 C-74.433829 306.489132 -75.839659 307.914794 -77.245361 309.340576 C-83.345636 315.448485 -89.739448 320.956249 -96.476562 326.344727 C-97.578189 327.279744 -98.674537 328.221078 -99.761719 329.172852 C-154.022642 376.488987 -227.019505 405.699083 -297.414062 418.157227 C-298.513311 418.352358 -299.612559 418.54749 -300.745117 418.748535 C-318.856898 421.76539 -336.951227 422.754972 -355.289062 422.719727 C-356.318933 422.719515 -357.348803 422.719304 -358.409882 422.719086 C-379.286372 422.676809 -399.793027 421.08921 -420.476562 418.344727 C-421.539465 418.206807 -421.539465 418.206807 -422.62384 418.066101 C-464.15177 412.662668 -504.412464 399.642194 -542.476562 382.344727 C-543.524893 381.870674 -544.573223 381.396621 -545.65332 380.908203 C-566.048095 371.608484 -585.622241 360.959235 -603.476562 347.344727 C-604.350547 346.682148 -605.224531 346.01957 -606.125 345.336914 C-610.907936 341.610147 -615.471937 337.650236 -619.976562 333.594727 C-620.493638 333.134612 -621.010713 332.674497 -621.543457 332.200439 C-624.175691 329.791581 -626.163119 327.69088 -627.476562 324.344727 C-626.588398 324.696641 -625.700234 325.048555 -624.785156 325.411133 C-556.309177 352.095681 -470.353106 360.720718 -401.46875 331.24707 C-391.133664 326.636222 -381.540008 321.125483 -372.476562 314.344727 C-371.753157 313.80606 -371.029751 313.267393 -370.284424 312.712402 C-363.325326 307.346706 -357.165571 301.307785 -350.998291 295.072266 C-349.286516 293.342152 -347.566792 291.620258 -345.845703 289.899414 C-340.180754 284.21647 -334.648386 278.486322 -329.476562 272.344727 C-328.564326 271.288285 -327.651588 270.232275 -326.738281 269.176758 C-291.441127 227.77357 -264.540368 180.899975 -240.45874 132.337402 C-236.9176 125.199194 -233.331789 118.103533 -229.539062 111.094727 C-218.329159 90.207582 -208.549864 68.404478 -199.116699 46.667725 C-195.408591 38.127774 -191.489487 29.703467 -187.427246 21.32666 C-186.563793 19.52658 -185.731272 17.711745 -184.902344 15.895508 C-175.031013 -5.226437 -155.32781 -19.663654 -133.851562 -27.655273 C-89.516378 -43.063231 -35.534902 -30.356565 0 0 Z " fill="#7F99ED" transform="translate(759.4765625,311.6552734375)"/>
<path d="M0 0 C3.412826 2.921064 6.749251 5.899605 10 9 C10.545676 9.495483 11.091353 9.990967 11.653564 10.501465 C16.390409 14.958836 19.472038 19.682585 22.5625 25.375 C23.315151 26.727911 23.315151 26.727911 24.083008 28.108154 C25.162171 30.048961 26.236743 31.992327 27.307129 33.937988 C29.052294 37.094588 30.82505 40.234255 32.605469 43.371094 C33.820553 45.518093 35.035402 47.665226 36.25 49.8125 C36.803733 50.788159 37.357466 51.763818 37.927979 52.769043 C42.574125 61.041232 46.812622 69.48993 51 78 C51.328852 78.666073 51.657704 79.332145 51.996521 80.018402 C54.366095 84.817853 56.719135 89.625202 59.0625 94.4375 C59.607003 95.55477 59.607003 95.55477 60.162506 96.694611 C65.516897 107.697814 70.672291 118.776109 75.6875 129.9375 C85.603534 151.971718 96.349075 173.465165 108.481445 194.377441 C109.94504 196.905083 111.392805 199.441101 112.835938 201.980469 C127.53071 227.751874 143.863517 252.617701 162.871094 275.433594 C164.301586 277.158059 165.710314 278.90079 167.097656 280.660156 C173.193026 288.348508 179.97686 295.172249 187 302 C167.215444 328.567833 123.808458 340.043544 93 345 C40.425746 352.505345 -15.907825 336.631523 -62 312 C-62.643081 311.661782 -63.286162 311.323564 -63.94873 310.975098 C-80.01918 302.479305 -94.361757 291.971773 -108 280 C-108.711562 279.410898 -109.423125 278.821797 -110.15625 278.214844 C-148.693785 246.073908 -172.357561 193.252352 -188 146.75 C-188.348228 145.720905 -188.348228 145.720905 -188.703491 144.671021 C-200.175867 110.545371 -200.93347 75.917143 -185.1875 43.199219 C-180.763942 34.312465 -175.357135 26.601344 -169 19 C-167.828242 17.580742 -167.828242 17.580742 -166.632812 16.132812 C-125.070429 -31.970536 -49.181761 -40.961179 0 0 Z " fill="#20CDC9" transform="translate(197,304)"/>
<path d="M0 0 C2.465707 1.937613 4.849367 3.942897 7.222656 5.992188 C7.957422 6.582578 8.692188 7.172969 9.449219 7.78125 C28.11047 23.277342 40.957746 47.660452 44.011719 71.675781 C45.300591 85.829509 45.140032 100.273505 41.222656 113.992188 C40.870742 115.24 40.518828 116.487812 40.15625 117.773438 C32.184279 144.375925 13.186616 166.390853 -10.777344 179.992188 C-37.641944 194.429389 -68.544278 197.943554 -97.839844 189.367188 C-126.534887 180.496113 -149.696406 161.735044 -163.988281 135.249756 C-176.914264 110.275518 -178.845812 81.912637 -171.160156 54.984375 C-166.915721 42.094594 -160.580859 30.308807 -151.777344 19.992188 C-151.034844 19.111758 -150.292344 18.231328 -149.527344 17.324219 C-112.466987 -25.205114 -45.91875 -33.195833 0 0 Z " fill="#7F99ED" transform="translate(729.77734375,20.0078125)"/>
<path d="M0 0 C21.895183 18.94081 37.237245 43.698648 39.960938 72.953125 C41.709877 100.76959 34.644198 128.379547 16.4375 150 C-6.052518 174.921371 -33.460801 188.817267 -67.195312 190.691406 C-96.307661 191.431551 -125.256999 180.515527 -146.6875 160.875 C-166.164272 142.306536 -179.095559 116.633219 -180.09375 89.527344 C-180.785414 59.804081 -172.20695 33.015204 -151.539062 10.945312 C-145.173535 4.329421 -138.743346 -1.631833 -130.875 -6.4375 C-129.529219 -7.307617 -129.529219 -7.307617 -128.15625 -8.195312 C-89.067676 -32.468056 -35.813167 -28.549652 0 0 Z " fill="#20CDC9" transform="translate(201.875,23.4375)"/>
</svg>
